<svg width="164" height="35" viewBox="0 0 164 35" fill="none" xmlns="http://www.w3.org/2000/svg">
<path d="M5.60258 16.9997H0.634583L6.15458 8.62769L0.979583 0.899687H5.94758L8.86858 5.63769L11.7896 0.899687H16.7576L11.5826 8.62769L17.1026 16.9997H12.1346L8.86858 11.5947L5.60258 16.9997Z" fill="#888888"/>
<path d="M21.9403 16.9997H17.5703L23.8953 0.899687H28.4953L34.8203 16.9997H30.4503L29.5303 14.4697H22.8603L21.9403 16.9997ZM25.7813 6.37369L24.1253 11.0197H28.2653L26.6093 6.37369C26.4253 5.85235 26.2873 5.30802 26.1953 4.74069C26.1033 5.30802 25.9653 5.85235 25.7813 6.37369Z" fill="#888888"/>
<path d="M50.8732 0.899687H54.8982V16.9997H50.6432V8.44369L47.1932 13.7337H44.7552L41.3052 8.42069V16.9997H37.0502V0.899687H41.0752L45.9742 8.44369L50.8732 0.899687Z" fill="#888888"/>
<path d="M60.0779 14.9297C58.5752 13.3197 57.8239 11.3264 57.8239 8.94969C57.8239 6.57302 58.5752 4.57969 60.0779 2.96969C61.5806 1.35969 63.7042 0.554688 66.4489 0.554688C69.1936 0.554688 71.3172 1.35969 72.8199 2.96969C74.3226 4.57969 75.0739 6.57302 75.0739 8.94969C75.0739 11.3264 74.3226 13.3197 72.8199 14.9297C71.3172 16.5397 69.1936 17.3447 66.4489 17.3447C63.7042 17.3447 61.5806 16.5397 60.0779 14.9297ZM69.5769 12.1927C70.3282 11.3647 70.7039 10.2837 70.7039 8.94969C70.7039 7.61569 70.3282 6.53469 69.5769 5.70669C68.8409 4.87869 67.7982 4.46469 66.4489 4.46469C65.0996 4.46469 64.0492 4.87869 63.2979 5.70669C62.5619 6.53469 62.1939 7.61569 62.1939 8.94969C62.1939 10.2837 62.5619 11.3647 63.2979 12.1927C64.0492 13.0207 65.0996 13.4347 66.4489 13.4347C67.7982 13.4347 68.8409 13.0207 69.5769 12.1927Z" fill="#888888"/>
<path d="M77.9839 0.899687H85.2519C87.0613 0.899687 88.4489 1.23702 89.4149 1.91169C90.3963 2.58635 90.8869 3.60602 90.8869 4.97069C90.8869 6.73402 90.0896 7.89935 88.4949 8.46669C90.5189 9.06469 91.5309 10.391 91.5309 12.4457C91.5309 13.3197 91.3393 14.071 90.9559 14.6997C90.5726 15.313 90.0436 15.7807 89.3689 16.1027C88.7096 16.4247 88.0196 16.6547 87.2989 16.7927C86.5936 16.9307 85.8193 16.9997 84.9759 16.9997H77.9839V0.899687ZM85.1139 13.6647C86.5399 13.6647 87.2529 13.105 87.2529 11.9857C87.2529 10.8664 86.5399 10.3067 85.1139 10.3067H82.2159V13.6647H85.1139ZM86.1489 6.83369C86.4709 6.55769 86.6319 6.18969 86.6319 5.72969C86.6319 5.26969 86.4709 4.90935 86.1489 4.64869C85.8423 4.37269 85.4129 4.23469 84.8609 4.23469H82.2389V7.20169L84.8609 7.22469C85.4129 7.22469 85.8423 7.09435 86.1489 6.83369Z" fill="#888888"/>
<path d="M104.632 0.899687H108.887V16.9997H104.632V10.8587H98.6516V16.9997H94.3966V0.899687H98.6516V7.06369H104.632V0.899687Z" fill="#888888"/>
<path d="M127.096 16.9997H122.841V10.4217C122.841 9.33302 122.872 8.45135 122.933 7.77669L116.631 16.9997H112.606V0.899687H116.861V7.47769C116.861 8.58169 116.83 9.47102 116.769 10.1457L123.071 0.899687H127.096V16.9997Z" fill="#888888"/>
<path d="M135.071 16.9997H130.816V0.899687H135.071V6.99469H137.095L140.752 0.899687H145.467L140.407 8.74269L145.697 16.9997H140.982L137.072 10.7897H135.071V16.9997Z" fill="#888888"/>
<path d="M162.235 16.9997H157.98V10.4217C157.98 9.33302 158.011 8.45135 158.072 7.77669L151.77 16.9997H147.745V0.899687H152V7.47769C152 8.58169 151.969 9.47102 151.908 10.1457L158.21 0.899687H162.235V16.9997Z" fill="#888888"/>
<path d="M2.66661 33.9997H3.68661V27.2437L6.69861 31.3837H6.85461L9.83061 27.2077V33.9997H10.8506V25.5997H9.87861L6.85461 29.9077L3.69861 25.5997H2.66661V33.9997Z" fill="#888888"/>
<path d="M19.4858 33.9997H20.5178L21.5858 31.4557H25.4138L26.4938 33.9997H27.5858L23.9738 25.5517H23.0978L19.4858 33.9997ZM23.5058 26.9077L25.0178 30.4957H21.9938L23.5058 26.9077Z" fill="#888888"/>
<path d="M37.2468 33.9997V30.7717C37.6668 30.8077 38.1708 30.8197 38.5068 30.8197C40.5588 30.8197 41.5308 29.5477 41.5308 28.1797C41.5308 26.8717 40.8228 25.5757 38.4228 25.5757C37.8948 25.5757 36.6948 25.5997 36.2268 25.5997V33.9997H37.2468ZM38.5188 26.5357C39.8508 26.5357 40.4508 27.1717 40.4508 28.1677C40.4508 29.2237 39.7068 29.8597 38.4708 29.8597C38.0508 29.8597 37.6548 29.8357 37.2468 29.7997V26.5597C37.6428 26.5477 38.1828 26.5357 38.5188 26.5357Z" fill="#888888"/>
<path d="M56.7309 25.5997H55.4949L51.8109 29.6197L55.6149 33.9997H56.9229L52.9869 29.5477L56.7309 25.5997ZM50.5869 33.9997H51.6069V25.5997H50.5869V33.9997Z" fill="#888888"/>
<path d="M65.6268 33.9997H70.4868V33.0397H66.6468V30.2317H70.0068V29.2717H66.6468V26.5597H70.3668V25.5997H65.6268V33.9997Z" fill="#888888"/>
<path d="M78.5891 26.5597H81.5291V33.9997H82.5491V26.5597H85.4891V25.5997H78.5891V26.5597Z" fill="#888888"/>
<path d="M99.6458 33.9997H100.666V25.5997H94.0658V33.9997H95.0858V26.5597H99.6458V33.9997Z" fill="#888888"/>
<path d="M115.555 33.9997H116.575V25.5997H111.547L111.427 27.2797C111.043 32.7397 110.035 33.0397 109.435 32.9797L109.423 33.9997C110.743 34.1677 111.871 33.4837 112.363 28.1437L112.507 26.5597H115.555V33.9997Z" fill="#888888"/>
<path d="M126.29 33.9997H131.15V33.0397H127.31V30.2317H130.67V29.2717H127.31V26.5597H131.03V25.5997H126.29V33.9997Z" fill="#888888"/>
<path d="M141.292 33.9997L146.392 27.2797V33.9997H147.412V25.5997H146.512L141.412 32.3197V25.5997H140.392V33.9997H141.292ZM141.736 23.6797C141.88 24.5557 142.72 25.1797 143.98 25.1797C145.132 25.1797 146.068 24.5797 146.176 23.6797H145.216C145.096 24.2077 144.604 24.4597 143.98 24.4597C143.296 24.4597 142.876 24.1717 142.696 23.6797H141.736Z" fill="#888888"/>
<path d="M162.975 32.4157C162.399 32.8837 161.631 33.1597 160.827 33.1597C158.883 33.1597 157.551 31.8037 157.551 29.7997C157.551 27.8077 158.847 26.4397 160.671 26.4397C161.547 26.4397 162.195 26.6557 162.747 27.0637L163.215 26.2957C162.615 25.7797 161.739 25.4797 160.659 25.4797C158.031 25.4797 156.471 27.3877 156.471 29.7997C156.471 32.4157 158.211 34.1197 160.731 34.1197C161.775 34.1197 162.819 33.7597 163.383 33.1837L162.975 32.4157Z" fill="#888888"/>
</svg>
