<svg width="230" height="58" viewBox="0 0 230 58" fill="none" xmlns="http://www.w3.org/2000/svg">
<g clip-path="url(#clip0)">
<path d="M11.7556 0.475586H13.5444C18.5278 0.858919 23 4.4367 24.6611 9.0367C23.1278 9.0367 21.5944 9.0367 20.0611 9.0367C18.4 6.35336 15.4611 4.30892 12.1389 4.56447C7.53889 4.82003 3.83333 9.29225 4.34444 13.7645C4.6 18.2367 8.81667 22.07 13.4167 21.5589C16.3556 21.4311 18.7833 19.3867 20.1889 16.8311C21.7222 16.8311 23.2556 16.8311 24.7889 16.8311C23 22.1978 17.6333 26.0311 12.0111 25.6478C5.75 25.52 0.383333 20.1534 0 14.02V12.2311C0.255556 6.09781 5.62222 0.858919 11.7556 0.475586Z" fill="white"/>
<path d="M43.9558 0.475586H46.0002C48.8113 0.731141 51.2391 1.88114 53.4113 3.67003C53.4113 3.15892 53.4113 2.26447 53.4113 1.75336C54.8169 1.75336 56.2225 1.75336 57.628 1.75336C57.628 9.54781 57.628 17.2145 57.628 25.0089C56.2225 25.0089 54.8169 25.0089 53.4113 25.0089C53.4113 24.2423 53.4113 23.3478 53.4113 22.5811C51.4947 24.1145 49.1947 25.3923 46.6391 25.6478C41.9113 26.4145 36.928 24.1145 34.3725 20.0256C31.6891 15.9367 31.5613 10.3145 34.2447 6.22559C36.2891 2.90336 39.9947 0.858919 43.9558 0.475586ZM42.0391 5.07559C37.9502 6.60892 35.6502 11.4645 36.928 15.5534C38.078 19.6423 42.8058 22.4534 46.8947 21.3034C51.4947 20.1534 54.3058 14.9145 52.7725 10.4423C51.4947 6.09781 46.2558 3.2867 42.0391 5.07559Z" fill="white"/>
<path d="M111.678 0.475586H113.722C117.811 0.858919 121.772 3.2867 123.689 6.86447C125.989 10.9534 125.861 16.32 123.178 20.1534C120.878 23.6034 116.789 25.7756 112.572 25.7756C107.972 25.7756 103.5 23.0922 101.456 18.8756C99.2836 14.6589 99.6669 9.29225 102.478 5.5867C104.65 2.64781 108.1 0.731141 111.678 0.475586ZM109.761 5.07558C105.672 6.60892 103.372 11.4645 104.778 15.5534C105.928 19.8978 110.911 22.5811 115.256 21.1756C119.728 19.77 122.284 14.4034 120.495 10.0589C119.089 5.84225 113.978 3.41447 109.761 5.07558Z" fill="white"/>
<path d="M67.2109 20.9204C73.0887 14.5315 78.8387 8.14264 84.7165 1.62598C86.122 1.62598 87.5276 1.62598 88.9332 1.62598C88.9332 8.01486 88.9332 14.5315 88.9332 20.9204C89.8276 20.9204 90.722 20.9204 91.6165 20.9204C91.6165 22.1982 91.6165 23.6038 91.6165 24.8815C82.2887 24.8815 72.8332 24.8815 63.5054 24.8815C63.5054 23.6038 63.5054 22.1982 63.5054 20.9204C64.6554 20.9204 65.9331 20.9204 67.2109 20.9204ZM72.5776 20.9204C76.6665 20.9204 80.7554 20.9204 84.7165 20.9204C84.7165 16.4482 84.7165 11.976 84.7165 7.50375C80.6276 12.1038 76.5387 16.576 72.5776 20.9204Z" fill="white"/>
<path d="M135.317 1.62598C140.556 1.62598 145.667 1.62598 150.906 1.62598C150.906 4.30931 150.906 6.86486 150.906 9.5482C152.95 9.5482 155.122 9.42042 156.784 10.5704C160.872 13.126 161.384 19.5149 157.934 22.8371C156.656 24.1149 154.867 24.8815 153.078 24.7538C147.2 24.7538 141.195 24.7538 135.317 24.7538C135.445 17.2149 135.445 9.42042 135.317 1.62598ZM139.534 5.84264C139.534 10.826 139.534 15.8093 139.534 20.7926C143.878 20.7926 148.095 20.7926 152.439 20.7926C153.845 20.7926 155.122 19.8982 155.634 18.7482C156.656 16.7038 155.378 14.0204 153.078 13.6371C150.906 13.5093 148.861 13.6371 146.689 13.5093C146.689 10.9538 146.689 8.3982 146.689 5.84264C144.389 5.84264 141.961 5.84264 139.534 5.84264Z" fill="white"/>
<path d="M169.944 1.62522C171.35 1.62522 172.755 1.62522 174.161 1.62522C174.161 8.01411 174.161 14.403 174.161 20.9197C176.333 20.7919 179.144 21.5585 180.55 19.3863C182.339 17.0863 180.422 13.6363 177.739 13.5085C177.739 12.2308 177.739 10.953 177.739 9.54744C182.467 7.11966 187.067 4.69189 191.794 2.26411C193.455 1.24189 195.372 1.753 197.161 1.62522C197.161 9.41966 197.161 17.0863 197.161 24.8808C195.755 24.8808 194.35 24.8808 192.944 24.8808C192.944 18.6197 192.944 12.4863 192.944 6.22522C189.622 7.75855 186.172 9.41966 182.85 10.953C187.067 14.5308 186.3 22.453 180.933 24.3697C177.355 25.2641 173.65 24.6252 169.944 24.753C169.944 17.2141 169.944 9.41966 169.944 1.62522Z" fill="white"/>
<path d="M209.172 1.75293C216.072 1.75293 222.972 1.75293 229.872 1.75293C229.872 3.15849 229.872 4.56404 229.872 5.9696C224.378 5.9696 218.883 5.9696 213.389 5.9696C213.389 7.63071 213.389 9.4196 213.389 11.0807C218.245 11.0807 222.972 11.0807 227.828 11.0807C227.828 12.4863 227.828 13.8918 227.828 15.2974C222.972 15.2974 218.245 15.2974 213.389 15.2974C213.389 17.0863 213.389 19.0029 213.389 20.7918C219.011 20.7918 224.506 20.7918 230.128 20.7918V25.0085C223.228 25.0085 216.2 25.0085 209.3 25.0085C209.172 17.214 209.172 9.4196 209.172 1.75293Z" fill="white"/>
<path d="M74.4943 43.4087C77.3054 40.9809 81.7776 40.9809 84.5887 43.4087C84.5887 43.1532 84.5887 42.5143 84.4609 42.2587C85.4832 42.2587 86.5054 42.2587 87.6554 42.2587C87.6554 47.2421 87.6554 52.2254 87.6554 57.0809C86.6332 57.0809 85.6109 57.0809 84.4609 57.0809C84.4609 56.6976 84.4609 56.1865 84.4609 55.8032C81.1387 58.7421 75.6443 57.9754 73.0887 54.3976C70.5332 51.2032 71.1721 45.9643 74.4943 43.4087ZM77.8165 45.0698C74.2387 46.3476 73.7276 51.7143 76.7943 53.7587C79.4776 55.8032 83.6943 54.0143 84.2054 50.8198C85.2276 47.1143 81.2665 43.5365 77.8165 45.0698Z" fill="white"/>
<path d="M141.833 44.3029C144.517 41.2362 149.628 40.7251 152.694 43.5362V42.3862C153.717 42.3862 154.739 42.3862 155.889 42.3862C155.889 47.3695 155.889 52.3529 155.889 57.2084C154.867 57.2084 153.844 57.2084 152.694 57.2084C152.694 56.9529 152.694 56.314 152.694 55.9306C149.628 58.614 144.644 58.2306 141.961 55.2918C139.022 52.3529 139.022 47.2418 141.833 44.3029ZM146.178 45.0695C142.728 46.2195 141.961 51.4584 144.9 53.6306C147.456 55.9306 151.928 54.1418 152.567 50.8195C153.461 47.2418 149.628 43.5362 146.178 45.0695Z" fill="white"/>
<path d="M30.2832 42.2588C31.3054 42.2588 32.3276 42.2588 33.4776 42.2588C33.4776 44.431 33.4776 46.4755 33.4776 48.6477C35.7776 46.4755 37.9499 44.431 40.2499 42.2588C41.7832 42.2588 43.3165 42.2588 44.8499 42.2588C42.1665 44.6866 39.611 47.1143 36.9276 49.5421C39.611 52.0977 42.2943 54.5255 44.9776 57.081C43.4443 57.081 41.7832 57.081 40.2499 57.081C37.9499 54.9088 35.7776 52.7366 33.4776 50.5643C33.4776 52.7366 33.4776 54.9088 33.4776 57.081C32.4554 57.081 31.4332 57.081 30.2832 57.081C30.2832 52.0977 30.2832 47.2421 30.2832 42.2588Z" fill="white"/>
<path d="M50.2166 42.2588C53.5389 42.2588 56.9889 42.2588 60.3111 42.2588C60.3111 43.7921 60.3111 45.4532 60.3111 46.9866C62.1 46.9866 64.1444 47.3699 65.1666 49.031C67.2111 51.8421 65.6778 56.6977 61.9722 56.9532C58.0111 57.081 54.05 56.9532 50.0889 57.081C50.2166 52.0977 50.2166 47.2421 50.2166 42.2588ZM53.4111 45.3255C53.4111 48.2643 53.4111 51.0755 53.4111 54.0143C56.0944 54.0143 58.7778 54.1421 61.4611 53.8866C63.25 53.5032 63.3778 50.8199 61.7166 50.181C60.3111 49.9255 58.7778 50.0532 57.2444 50.0532C57.2444 48.5199 57.2444 46.8588 57.2444 45.3255C55.9666 45.3255 54.6889 45.3255 53.4111 45.3255Z" fill="white"/>
<path d="M95.3221 42.2588C98.6443 42.3866 101.967 42.131 105.289 42.3866C109.633 43.1532 110.272 50.0532 106.311 51.8421C103.755 52.7366 101.072 52.0977 98.3888 52.3532C98.3888 54.0143 98.3888 55.5477 98.3888 57.2088C97.3666 57.2088 96.3443 57.2088 95.1943 57.2088C95.3221 52.0977 95.3221 47.2421 95.3221 42.2588ZM98.5166 45.3255C98.5166 46.6032 98.5166 47.881 98.5166 49.1588C100.561 49.1588 102.605 49.2866 104.65 49.031C106.183 48.5199 106.183 45.9643 104.65 45.4532C102.605 45.0699 100.561 45.3255 98.5166 45.3255Z" fill="white"/>
<path d="M115.766 42.2588C121.772 42.2588 127.778 42.2588 133.655 42.2588C133.655 47.2421 133.655 52.2255 133.655 57.081C132.633 57.081 131.611 57.081 130.461 57.081C130.461 53.1199 130.461 49.2866 130.461 45.3255C129.055 45.3255 127.65 45.3255 126.244 45.3255C126.244 49.2866 126.244 53.1199 126.244 57.081C125.222 57.081 124.072 57.081 123.05 57.081C123.05 53.1199 123.05 49.2866 123.05 45.3255C121.644 45.3255 120.239 45.3255 118.833 45.3255C118.833 49.2866 118.833 53.1199 118.833 57.081C117.811 57.081 116.661 57.081 115.639 57.081C115.766 52.0977 115.766 47.2421 115.766 42.2588Z" fill="white"/>
<path d="M159.467 57.081C163.939 52.0977 168.411 47.1143 173.011 42.2588C174.033 42.2588 174.928 42.2588 175.95 42.2588C175.95 47.2421 175.95 52.2255 175.95 57.081C174.928 57.081 173.906 57.081 172.756 57.081C172.756 53.7588 172.756 50.4366 172.756 47.1143C169.689 50.4366 166.75 53.7588 163.683 57.081C162.278 57.081 160.872 57.081 159.467 57.081Z" fill="white"/>
<path d="M183.105 42.2588C184.128 42.2588 185.15 42.2588 186.3 42.2588C186.3 46.2199 186.3 50.181 186.3 54.1421C187.578 54.0143 189.239 54.3977 189.878 52.9921C190.644 51.5866 189.239 50.181 187.833 50.0532C187.833 49.1588 187.833 48.1366 187.833 47.2421C190.772 45.7088 193.711 44.1755 196.522 42.7699C197.672 42.0032 199.078 42.3866 200.355 42.2588C200.355 47.2421 200.355 52.2255 200.355 57.081C199.333 57.081 198.183 57.081 197.161 57.081C197.161 53.2477 197.161 49.5421 197.161 45.7088C195.372 46.6032 193.583 47.4977 191.794 48.2643C193.967 50.6921 193.583 55.1643 190.517 56.5699C188.217 57.4643 185.533 56.8255 183.105 56.9532C183.105 52.0977 183.105 47.2421 183.105 42.2588Z" fill="white"/>
</g>
<defs>
<clipPath id="clip0">
<rect width="230" height="57.2444" fill="white" transform="translate(0 0.475586)"/>
</clipPath>
</defs>
</svg>
