<svg width="270" height="60" viewBox="0 0 270 60" fill="none" xmlns="http://www.w3.org/2000/svg">
<g clip-path="url(#clip0)">
<path d="M65.1855 56.9165L67.9828 48.8711H69.4979L72.2952 56.9165H70.6635L70.0807 55.0509H67.5166L66.9338 56.9165H65.1855ZM67.7497 53.6517H69.4979L68.6821 50.7367L67.7497 53.6517Z" fill="white"/>
<path d="M76.4912 56.9165V48.8711H79.405C80.8036 48.8711 81.736 49.5707 81.736 51.0865C81.736 51.7861 81.5029 52.3691 80.9202 52.6023C81.736 52.9521 82.0857 53.5351 82.0857 54.5845C82.0857 56.2169 81.0367 57.0331 79.405 57.0331H76.4912V56.9165ZM78.0064 51.9027H79.405C79.9877 51.9027 80.3374 51.6695 80.3374 50.9699C80.3374 50.2703 79.9877 50.0371 79.405 50.0371H78.0064V51.9027ZM78.0064 55.5173H79.405C80.3374 55.5173 80.6871 55.1675 80.6871 54.4679C80.6871 53.7683 80.3374 53.4185 79.405 53.4185H78.0064V55.5173Z" fill="white"/>
<path d="M85.9316 50.1531V48.7539H91.9923V50.1531H89.7778V56.916H88.2627V50.1531H85.9316Z" fill="white"/>
<path d="M99.6851 48.7539C101.783 48.7539 103.531 50.0365 103.531 52.9515C103.531 55.75 101.783 57.1492 99.6851 57.1492C97.5871 57.1492 95.8389 55.8666 95.8389 52.9515C95.8389 50.0365 97.5871 48.7539 99.6851 48.7539ZM99.6851 55.6334C100.851 55.6334 102.016 54.8171 102.016 52.8349C102.016 50.9693 100.967 50.0365 99.6851 50.0365C98.5195 50.0365 97.354 50.8527 97.354 52.8349C97.354 54.8171 98.5195 55.6334 99.6851 55.6334Z" fill="white"/>
<path d="M108.31 56.9165V48.8711H111.34C113.088 48.8711 113.904 49.9205 113.904 51.3197C113.904 52.7189 113.088 53.7683 111.34 53.7683H109.825V56.9165H108.31ZM109.825 52.3691H111.34C112.039 52.3691 112.389 52.0193 112.389 51.3197C112.389 50.6201 112.039 50.2703 111.34 50.2703H109.825V52.3691Z" fill="white"/>
<path d="M121.83 48.7539C123.578 48.7539 124.86 49.6867 125.21 51.2025L123.811 51.5523C123.461 50.7361 122.879 50.1531 121.83 50.1531C120.548 50.1531 119.499 51.0859 119.499 52.9515C119.499 54.8171 120.548 55.75 121.83 55.75C122.995 55.75 123.461 55.1669 123.811 54.3507L125.21 54.7005C124.86 56.2164 123.578 57.1492 121.83 57.1492C119.848 57.1492 117.983 55.75 117.983 52.9515C117.983 50.1531 119.732 48.7539 121.83 48.7539Z" fill="white"/>
<path d="M129.755 56.916V48.7539H131.27V51.7855L134.067 48.7539H135.932L132.669 52.3685L136.165 56.916H134.184L131.27 53.0681V56.916H129.755Z" fill="white"/>
<path d="M144.906 56.916V51.5523L141.876 56.916H140.244V48.7539H141.759V54.1175L144.79 48.7539H146.305V56.916H144.906Z" fill="white"/>
<path d="M156.212 56.9165V51.5529L153.182 56.9165H151.55V48.8711H153.065V54.2347L156.095 48.8711H157.727V56.9165H156.212ZM154.464 46.5391C154.464 46.7723 154.58 46.8889 154.813 46.8889C155.046 46.8889 155.163 46.7723 155.163 46.5391H156.212C156.212 47.2387 155.746 47.8217 154.813 47.8217C153.997 47.8217 153.415 47.2387 153.415 46.5391H154.464Z" fill="white"/>
<path d="M168.683 55.5173H169.382L170.547 48.8711H175.209V55.5173H175.909L175.792 58.4324H174.51V57.0332H170.198V58.4324H168.916L168.683 55.5173ZM170.897 55.5173H173.694V50.2703H171.829L170.897 55.5173Z" fill="white"/>
<path d="M183.834 48.7539C185.932 48.7539 187.681 50.0365 187.681 52.9515C187.681 55.75 185.932 57.1492 183.834 57.1492C181.737 57.1492 179.988 55.8666 179.988 52.9515C179.988 50.0365 181.853 48.7539 183.834 48.7539ZM183.834 55.6334C185 55.6334 186.165 54.8171 186.165 52.8349C186.165 50.9693 185.117 50.0365 183.834 50.0365C182.669 50.0365 181.503 50.8527 181.503 52.8349C181.503 54.8171 182.669 55.6334 183.834 55.6334Z" fill="white"/>
<path d="M192.459 56.916V48.7539H194.207L196.072 53.8843L198.053 48.7539H199.685V56.916H198.17V51.9021L196.655 56.2164H195.606L193.974 51.9021V56.916H192.459Z" fill="white"/>
<path d="M43.0405 2.11426C33.5999 2.11426 26.1406 8.1775 26.1406 17.8554C26.1406 27.7664 33.4833 33.5965 43.0405 33.5965C52.5977 33.5965 59.9405 27.883 59.9405 17.8554C59.9405 8.0609 52.5977 2.11426 43.0405 2.11426ZM43.1571 32.4305C35.1151 32.4305 28.9379 27.3 28.9379 17.8554C28.9379 8.7605 35.1151 3.28027 43.1571 3.28027C51.1991 3.28027 57.3763 8.6439 57.3763 17.8554C57.3763 27.1834 51.1991 32.4305 43.1571 32.4305Z" fill="white"/>
<path d="M103.298 1.06445L88.8457 32.8965L90.3609 33.0131L96.5381 19.3708H109.009L115.303 33.0131H117.75L103.298 1.06445ZM97.0043 18.0882L102.832 5.49528L108.659 18.0882H97.0043Z" fill="white"/>
<path d="M23.3436 33.0129L13.7864 18.5544C15.5347 17.8548 20.0802 16.4556 20.0802 10.3923C20.0802 2.46347 11.2223 1.99707 9.59056 1.99707L1.31543 2.11367V33.1295H3.64645V19.1374H11.4554L20.7795 33.1295H23.3436V33.0129ZM9.00781 17.7382H3.64645V3.27968C3.64645 3.27968 6.79333 3.16308 8.7747 3.27968C13.4367 3.27968 17.8657 5.02869 17.8657 10.3923C17.7491 17.3884 11.3388 17.7382 9.00781 17.7382Z" fill="white"/>
<path d="M84.4165 31.7303H65.6518L84.7662 2.58008H65.0691V3.86269H81.1531L62.1553 33.0129H84.4165V31.7303Z" fill="white"/>
<path d="M166.235 2.11426C156.794 2.11426 149.335 8.1775 149.335 17.8554C149.335 27.7664 156.678 33.5965 166.235 33.5965C175.792 33.5965 183.135 27.7664 183.135 17.8554C183.135 8.0609 175.792 2.11426 166.235 2.11426ZM166.235 32.4305C158.193 32.4305 152.016 27.3 152.016 17.8554C152.016 8.7605 158.193 3.28027 166.235 3.28027C174.277 3.28027 180.454 8.6439 180.454 17.8554C180.571 27.1834 174.393 32.4305 166.235 32.4305Z" fill="white"/>
<path d="M206.795 4.56229C203.998 2.92988 201.201 1.99707 197.937 1.99707C191.993 1.99707 188.03 4.79549 188.03 9.57612C188.03 14.3568 191.41 16.339 197.588 18.5544C203.299 20.5366 206.212 22.5188 206.212 26.1334C206.212 30.2145 202.832 32.3133 197.821 32.3133C193.625 32.3133 189.429 31.0307 188.03 26.4832H187.681L187.914 30.6809C188.846 31.3805 192.226 33.4793 197.704 33.4793C203.182 33.4793 208.427 31.2639 208.427 25.5504C208.427 21.2362 206.096 18.9042 198.636 16.339C192.343 14.1236 189.895 12.4911 189.895 9.10972C189.895 5.6117 193.625 3.27968 197.821 3.27968C201.783 3.27968 205.396 4.44569 206.445 8.29351H206.678V4.56229H206.795Z" fill="white"/>
<path d="M232.786 4.56229C229.989 2.92988 227.192 1.99707 223.928 1.99707C217.984 1.99707 214.022 4.79549 214.022 9.57612C214.022 14.3568 217.402 16.339 223.579 18.5544C229.29 20.5366 232.204 22.5188 232.204 26.1334C232.204 30.2145 228.824 32.3133 223.812 32.3133C219.616 32.3133 215.42 31.0307 214.022 26.4832H213.672L213.905 30.6809C214.837 31.3805 218.217 33.4793 223.695 33.4793C229.173 33.4793 234.418 31.2639 234.418 25.5504C234.418 21.2362 232.087 18.9042 224.628 16.339C218.334 14.1236 215.886 12.4911 215.886 9.10972C215.886 5.6117 219.616 3.27968 223.812 3.27968C227.775 3.27968 231.388 4.44569 232.437 8.29351H232.67V4.56229H232.786Z" fill="white"/>
<path d="M252.6 1.06445L238.147 32.7799L239.663 32.8965L245.84 19.2542H258.311L264.605 32.8965H267.052L252.6 1.06445ZM246.306 18.0882L252.134 5.49528L257.961 18.0882H246.306Z" fill="white"/>
<path d="M123.694 33.0135H126.025V19.2546V19.138V2.11426H123.694V33.0135Z" fill="white"/>
<path d="M144.44 30.6809C142.925 22.0524 140.827 19.254 136.981 18.3212C138.962 17.6216 142.459 15.9892 142.459 10.3923C142.459 2.46347 133.601 1.99707 131.969 1.99707H128.239V3.27968C129.172 3.27968 130.454 3.27968 131.27 3.27968C135.932 3.27968 140.127 5.02869 140.127 10.3923C140.127 17.3884 133.601 17.7382 131.386 17.7382H128.239V19.0208H133.368C133.484 19.0208 133.601 19.0208 133.717 19.0208C135.582 19.3706 140.244 19.7204 141.876 29.7481C143.624 40.0089 151.666 38.9595 151.666 38.9595V38.8429C151.2 38.8429 146.305 38.3765 144.44 30.6809Z" fill="white"/>
</g>
<defs>
<clipPath id="clip0">
<rect width="269" height="59" fill="white" transform="translate(0.5 0.597656)"/>
</clipPath>
</defs>
</svg>
