<svg width="300" height="56" viewBox="0 0 300 56" fill="none" xmlns="http://www.w3.org/2000/svg">
<g clip-path="url(#clip0)">
<path d="M113.828 15.24C113.828 10.2685 109.457 8.38281 102.343 8.38281H90.6855V36.3257H95.2284V9.23996H100.714C105.771 9.23996 109.114 11.04 109.114 15.24C109.114 19.7828 105.686 22.0971 100.714 22.0971H98.057H97.9713L111 36.3257H116.914L103.8 22.2685C109.714 22.0114 113.828 19.6971 113.828 15.24Z" fill="white"/>
<path d="M83.0569 15.24C83.0569 10.2685 78.6855 8.38281 71.5712 8.38281H59.9141V36.3257H64.4569V9.23996H69.9426C74.9998 9.23996 78.3426 11.04 78.3426 15.24C78.3426 19.7828 74.9141 22.0971 69.9426 22.0971H67.2855H67.1998L80.2283 36.3257H86.1426L73.0283 22.3542C78.8569 22.0114 83.0569 19.6971 83.0569 15.24Z" fill="white"/>
<path d="M35.229 26.8973L40.5433 12.9259L46.5433 26.8973H35.229ZM38.5718 8.46875L40.029 11.8973L28.2861 36.4116H31.5433L34.8861 27.6688H46.8004L50.5718 36.4116H55.5433L43.3718 8.46875H38.5718Z" fill="white"/>
<path d="M13.4571 9.32634C18.5143 9.32634 22.1143 12.1549 26.7429 17.2978L27.1714 12.2406C24.6857 10.012 21.2571 7.95491 16.1143 7.95491C6.68571 7.86919 0 14.6406 0 23.212C0 31.4406 6.6 37.0121 14.6571 37.0121C19.7143 37.0121 23.9143 34.4406 27 30.4978L26.5714 30.0692C22.9714 33.2406 20.2286 34.3549 16.3714 34.3549C9.34286 34.3549 4.62857 28.7835 4.62857 21.4121C4.54286 13.4406 7.54286 9.32634 13.4571 9.32634Z" fill="white"/>
<path d="M138.6 0.668945L125.657 3.49752V4.35466L138.6 1.44037V0.668945Z" fill="white"/>
<path d="M265.2 29.383L246.343 8.46875H240.172L244.029 12.7545L243.086 36.4116H245.743L244.886 13.6973L265.2 36.4116H265.972L266.829 8.46875H264.172L265.2 29.383Z" fill="white"/>
<path d="M125.657 21.8402H138.6V21.0688H125.657V9.15446L141.514 10.8687V8.46875H121.114V36.4116H142.029V34.0116L125.657 35.7259V21.8402Z" fill="white"/>
<path d="M289.114 34.3551C282.085 34.3551 277.371 28.7837 277.371 21.4122C277.371 13.4408 280.371 9.32651 286.2 9.32651C291.257 9.32651 294.942 12.1551 299.571 17.2979L300 12.2408C297.514 10.0122 294.085 7.95508 288.942 7.95508C279.514 7.95508 272.828 14.7265 272.828 23.2979C272.828 31.5265 279.428 37.0979 287.485 37.0979C292.542 37.0979 296.742 34.5265 299.828 30.5837L299.4 30.1551C295.714 33.2408 292.971 34.3551 289.114 34.3551Z" fill="white"/>
<path d="M218.486 26.8973L223.286 12.8402L229.629 26.8973H218.486ZM221.229 8.46875L222.771 11.8973L211.886 36.4973H215.229L218.229 27.7545H229.971L233.914 36.4973H238.886L226.114 8.46875H221.229Z" fill="white"/>
<path d="M171.085 35.6402H164.657V21.9259H170.4C175.028 21.9259 178.8 24.2402 178.8 28.6973C178.8 32.983 175.543 35.6402 171.085 35.6402ZM164.657 9.24018H170.143C174.514 9.24018 177.257 10.783 177.257 14.8116C177.257 18.4973 174.857 21.1545 170.4 21.1545H164.657V9.24018ZM173.143 21.4973V21.4116C177.857 21.1545 181.885 18.6688 181.885 14.8116C181.885 10.3545 177.771 8.46875 171.514 8.46875H160.028V36.4116H171.428C178.885 36.4116 183.685 33.8402 183.685 28.6973C183.6 24.1545 179.485 21.8402 173.143 21.4973Z" fill="white"/>
<path d="M194.057 8.46875H189.429V36.4116H209.657V33.583L194.057 35.7259V8.46875Z" fill="white"/>
<path d="M0.857143 55.0976C0.857143 55.0119 0.942857 55.0119 1.02857 55.0119H5.31429C5.4 55.0119 5.4 55.0119 5.48571 55.0976L6 56.3833H6.25714L6.17143 54.5833H5.4V48.5833H1.45714V48.7547C1.45714 51.8405 1.2 53.3833 0.685714 54.5833H0.0857143L0 56.3833H0.257143L0.857143 55.0976ZM4.62857 54.5833H1.2C1.62857 53.7262 1.88571 51.9262 1.88571 48.9262H4.62857V54.5833ZM16.2857 55.0976C18.1714 55.0976 19.7143 53.7262 19.7143 51.7547C19.7143 49.7833 18.1714 48.4119 16.2857 48.4119C14.4 48.4119 12.8571 49.6976 12.8571 51.7547C12.8571 53.7262 14.4 55.0976 16.2857 55.0976ZM16.2857 54.7547C14.9143 54.7547 13.8 53.6405 13.8 51.5833C13.8 49.6976 15 48.8405 16.2 48.8405C17.5714 48.8405 18.6857 49.9547 18.6857 52.0119C18.7714 53.8119 17.5714 54.7547 16.2857 54.7547ZM27.4286 49.5262L29.9143 53.6405H30.2571L32.7429 49.5262V55.0119H33.6V48.5833H32.8286L30.3429 52.6976L27.7714 48.5833H26.9143V55.0119H27.4286V49.5262ZM52.4571 55.0976C53.2286 55.0976 54.1714 54.9262 54.6 54.669L54.7714 53.0405H54.5143L54.0857 54.2405C54 54.5833 53.1429 54.669 52.5429 54.669C50.8286 54.669 49.8 53.3833 49.8 51.4976C49.8 49.4405 51.0857 48.669 52.4571 48.669C53.0571 48.669 53.9143 48.7547 54 49.0976L54.4286 50.3833H54.6857L54.5143 48.7547C54 48.4976 53.1429 48.3262 52.4571 48.3262C50.3143 48.3262 48.8571 49.6119 48.8571 51.669C48.8571 53.8119 50.4 55.0976 52.4571 55.0976ZM70.5429 54.669C71.1429 53.8119 71.2286 52.3547 71.2286 48.9262H73.8857V54.9262H74.7429V48.4976H70.8857V48.669C70.8857 52.4405 70.8 53.7262 69.8571 54.1547C69.4286 54.4119 69.4286 54.5833 69.4286 54.7547C69.4286 54.9262 69.6 55.0976 69.8571 55.0976C70.1143 55.0976 70.2857 55.0119 70.5429 54.669ZM82.4571 55.0119H86.6571V54.5833H83.2286V51.8405H86.1429V51.4119H83.2286V48.9262H86.6571V48.4976H82.4571C82.4571 48.5833 82.4571 55.0119 82.4571 55.0119ZM94.8 48.9262H97.9714V48.4976H94.0286V54.9262H94.8V48.9262ZM105.086 55.0119H109.286V54.5833H105.857V51.8405H108.771V51.4119H105.857V48.9262H109.286V48.4976H105.086C105.086 48.5833 105.086 55.0119 105.086 55.0119ZM116.571 55.0119H117.429V51.8405H121.2V55.0119H122.057V48.5833H121.2V51.4119H117.429V48.5833H116.571C116.571 48.5833 116.571 54.9262 116.571 55.0119ZM129.857 55.0976C129.857 55.0119 129.943 55.0119 130.029 55.0119H134.314C134.4 55.0119 134.4 55.0119 134.486 55.0976L135.086 56.3833H135.343L135.257 54.5833H134.486V48.5833H130.543V48.7547C130.543 51.8405 130.286 53.3833 129.771 54.5833H129.171L129.086 56.3833H129.343L129.857 55.0976ZM133.629 54.5833H130.2C130.629 53.7262 130.971 51.9262 130.971 48.9262H133.714V54.5833H133.629ZM146.914 54.9262H147.771L145.029 48.4976H144.343L141.6 54.9262H142.114L143.143 52.5262H145.886L146.914 54.9262ZM143.314 52.1833L144.514 49.3547L145.714 52.1833H143.314ZM155.571 54.9262V52.0119H156.943C158.4 52.0119 159.6 51.5833 159.6 50.2119C159.6 48.8405 158.4 48.4976 156.943 48.4976H154.8V54.9262H155.571ZM155.571 48.9262H156.857C157.971 48.9262 158.657 49.269 158.657 50.2976C158.657 51.3262 157.886 51.669 156.857 51.669H155.571V48.9262ZM166.714 54.9262H167.571V51.7547H171.343V54.9262H172.2V48.4976H171.343V51.3262H167.571V48.4976H166.714V54.9262ZM180.686 51.2405V48.4976H179.914V54.9262H181.886C183.771 54.9262 184.714 54.2405 184.714 52.9547C184.714 51.8405 183.771 51.2405 181.886 51.2405H180.686ZM185.571 54.9262H186.343V48.4976H185.571V54.9262ZM180.686 54.5833V51.669H181.543C183.171 51.669 183.771 52.269 183.771 53.1262C183.771 54.069 183.171 54.5833 181.543 54.5833H180.686ZM194.657 49.5262L197.143 53.6405H197.486L199.971 49.5262V55.0119H200.829V48.5833H200.057L197.571 52.6976L195.086 48.5833H194.229V55.0119H194.657C194.657 54.9262 194.657 49.5262 194.657 49.5262ZM209.4 54.9262L213.257 49.269V54.9262H214.114V48.4976H213.257L209.4 54.1547V48.4976H208.543V54.9262H209.4ZM231.943 54.9262C233.743 54.9262 234.6 54.1547 234.6 53.0405C234.6 52.0119 233.657 51.4976 232.371 51.4976C233.486 51.4119 234.171 50.8119 234.171 49.9547C234.171 48.8405 233.143 48.4976 231.686 48.4976H229.714V54.9262H231.943ZM230.571 51.4119V48.9262H231.6C232.629 48.9262 233.314 49.269 233.314 50.1262C233.314 50.8976 232.714 51.4119 231.771 51.4119H230.571ZM230.571 54.5833V51.7547H231.857C233.057 51.7547 233.743 52.1833 233.743 53.1262C233.743 54.069 233.057 54.5833 231.771 54.5833H230.571ZM242.657 54.9262L246.514 49.269V54.9262H247.371V48.4976H246.514L242.657 54.1547V48.4976H241.8V54.9262H242.657ZM255.171 55.0976C255.171 55.0119 255.257 55.0119 255.343 55.0119H259.629C259.714 55.0119 259.714 55.0119 259.8 55.0976L260.4 56.3833H260.657L260.571 54.5833H259.8V48.5833H255.857V48.7547C255.857 51.8405 255.6 53.3833 255.086 54.5833H254.486L254.4 56.3833H254.657L255.171 55.0976ZM258.943 54.5833H255.514C255.943 53.7262 256.286 51.9262 256.286 48.9262H259.029V54.5833H258.943ZM272.314 54.9262H273.171L270.429 48.4976H269.743L267 54.9262H267.429L268.457 52.5262H271.2L272.314 54.9262ZM268.629 52.1833L269.829 49.3547L271.029 52.1833H268.629ZM280.543 49.5262L283.029 53.6405H283.371L285.857 49.5262V55.0119H286.714V48.5833H285.943L283.457 52.6976L280.886 48.5833H280.029V55.0119H280.457L280.543 49.5262ZM295.286 54.9262L299.143 49.269V54.9262H300V48.4976H299.143L295.286 54.1547V48.4976H294.429V54.9262H295.286Z" fill="white"/>
</g>
<defs>
<clipPath id="clip0">
<rect width="300" height="55.7143" fill="white" transform="translate(0 0.240234)"/>
</clipPath>
</defs>
</svg>
