<svg width="235" height="56" viewBox="0 0 235 56" fill="none" xmlns="http://www.w3.org/2000/svg">
<path d="M50.6416 21.9316C50.6416 21.5996 50.6748 21.2067 50.7412 20.7529L52.8164 20.3877C53.071 20.3324 53.3753 20.2438 53.7295 20.1221L53.9453 15.9717C53.901 14.4775 53.8789 13.3597 53.8789 12.6182L53.8955 12.2197C53.9287 11.766 53.9453 10.626 53.9453 8.7998L53.9121 8.31836L53.9453 6.92383L53.9287 5.47949V4.76562C53.9287 4.1237 53.8789 3.37109 53.7793 2.50781C53.7682 2.43034 53.724 2.29753 53.6465 2.10938C53.5579 2.07617 53.4583 2.05404 53.3477 2.04297C53.248 2.0319 53.1429 2.0153 53.0322 1.99316C52.6006 1.91569 52.1413 1.86035 51.6543 1.82715L51.4053 1.76074C51.1064 1.72754 50.8796 1.68327 50.7246 1.62793C50.6914 1.30697 50.6748 1.10221 50.6748 1.01367C50.6748 0.880859 50.708 0.698242 50.7744 0.46582C50.9958 0.421549 51.3057 0.399414 51.7041 0.399414C52.1025 0.399414 52.3792 0.39388 52.5342 0.382812C53.8844 0.526693 54.8861 0.604167 55.5391 0.615234C55.8379 0.615234 56.1367 0.626302 56.4355 0.648438C56.7454 0.659505 57.0166 0.665039 57.249 0.665039C57.6143 0.665039 58.5052 0.609701 59.9219 0.499023C60.1543 0.443685 60.4089 0.416016 60.6855 0.416016C61.0951 0.416016 61.4382 0.438151 61.7148 0.482422C61.7259 0.714844 61.7314 0.880859 61.7314 0.980469C61.7314 1.15755 61.7093 1.37337 61.665 1.62793L58.7432 2.09277C58.4997 2.20345 58.3779 2.36393 58.3779 2.57422L58.4277 3.18848L58.4443 3.4541L58.4277 4.18457L58.3945 4.74902V4.88184C58.4056 5.00358 58.4111 5.10872 58.4111 5.19727L58.3945 7.30566C58.4056 7.50488 58.4111 7.6543 58.4111 7.75391C58.4111 7.80924 58.4001 7.98633 58.3779 8.28516C58.3669 8.46224 58.3613 8.64486 58.3613 8.83301C58.3613 8.99902 58.3779 9.39193 58.4111 10.0117C58.721 10.0671 58.9811 10.1003 59.1914 10.1113L61.6484 10.1611H62.8438L65.832 10.1777L68.7373 10.0947C69.1136 10.0947 69.512 10.056 69.9326 9.97852C69.9548 9.60221 69.9714 8.67806 69.9824 7.20605L70.0156 6.45898L69.916 3.63672L69.7998 2.47461C69.7666 2.39714 69.6891 2.3252 69.5674 2.25879C69.18 2.03743 68.4053 1.78841 67.2432 1.51172C67.0329 1.46745 66.8337 1.41211 66.6455 1.3457C66.6676 0.958333 66.7119 0.642904 66.7783 0.399414C67.0218 0.388346 67.1712 0.382812 67.2266 0.382812L68.8369 0.399414C69.8662 0.532227 70.9121 0.598633 71.9746 0.598633C72.2181 0.598633 72.4118 0.593099 72.5557 0.582031L74.7139 0.515625C74.9131 0.504557 75.1068 0.49349 75.2949 0.482422C75.6934 0.39388 76.1029 0.349609 76.5234 0.349609C76.8444 0.349609 77.2318 0.366211 77.6855 0.399414C77.6745 0.831055 77.6468 1.22396 77.6025 1.57812C76.5843 1.78841 75.9147 1.94336 75.5938 2.04297C75.2839 2.13151 74.9684 2.25879 74.6475 2.4248L74.5479 2.75684V3.03906L74.5645 3.4707L74.5479 3.68652C74.5257 3.91895 74.5146 4.09603 74.5146 4.21777V4.63281C74.5257 5.13086 74.5312 5.40755 74.5312 5.46289V7.57129L74.5479 9.16504L74.5146 11.2734C74.5036 11.7604 74.5202 12.7565 74.5645 14.2617V16.6191L74.5977 18.5781C74.5977 18.9434 74.5866 19.3861 74.5645 19.9062C74.7969 19.9727 75.0127 20.028 75.2119 20.0723C76.2523 20.2936 77.0381 20.5205 77.5693 20.7529L77.6191 21.915C77.1764 21.9261 76.9163 21.9316 76.8389 21.9316C76.3076 21.9316 75.6989 21.8984 75.0127 21.832C74.1051 21.7324 72.6442 21.6826 70.6299 21.6826C69.7223 21.6826 68.5492 21.7546 67.1104 21.8984C66.9554 21.8984 66.7673 21.8652 66.5459 21.7988C66.557 21.2897 66.5846 20.93 66.6289 20.7197L67.9072 20.4209L69.252 20.2051C69.3848 20.1719 69.5563 20.1221 69.7666 20.0557C69.8883 19.1592 69.9548 17.6706 69.9658 15.5898L69.9824 14.1787C69.916 13.5921 69.8828 12.8893 69.8828 12.0703C69.4733 12.0371 69.0306 12.015 68.5547 12.0039L60.8516 11.9209L60.7021 11.9043L60.5859 11.8877C60.5085 11.8877 60.4199 11.8932 60.3203 11.9043C60.0326 11.9154 59.7891 11.9209 59.5898 11.9209H59.125C58.9147 11.9209 58.6768 11.9596 58.4111 12.0371L58.3447 13.2822V13.498C58.3669 13.7969 58.3779 13.9906 58.3779 14.0791V19.2256C58.3779 19.5133 58.3945 19.8066 58.4277 20.1055L58.5938 20.2051L61.0342 20.5869C61.1559 20.6312 61.25 20.6589 61.3164 20.6699C61.4603 20.7031 61.582 20.7529 61.6816 20.8193C61.7148 21.0739 61.7314 21.2454 61.7314 21.334C61.7314 21.4779 61.7093 21.6771 61.665 21.9316C61.2666 21.9427 60.929 21.9482 60.6523 21.9482C60.4089 21.9482 60.182 21.9427 59.9717 21.9316C59.8721 21.9316 59.778 21.9261 59.6895 21.915L57.3486 21.8154C56.7952 21.7601 56.0205 21.7324 55.0244 21.7324L54.6758 21.749C54.2109 21.7712 53.9398 21.7878 53.8623 21.7988C53.1761 21.8874 52.1025 21.9316 50.6416 21.9316ZM80.4912 10.9746C80.4912 9.60221 80.7568 8.22428 81.2881 6.84082C81.6755 5.84473 82.2178 4.93164 82.915 4.10156C83.6123 3.27148 84.4867 2.53548 85.5381 1.89355C86.5895 1.24056 87.6631 0.775716 88.7588 0.499023C89.8545 0.211263 91.0775 0.0673828 92.4277 0.0673828C94.7298 0.0673828 96.7275 0.499023 98.4209 1.3623C100.114 2.22559 101.448 3.39323 102.422 4.86523C103.684 6.77995 104.314 8.78874 104.314 10.8916C104.314 14.0238 103.246 16.7077 101.11 18.9434C98.9854 21.179 96.0247 22.2969 92.2285 22.2969C91.2878 22.2969 90.4079 22.236 89.5889 22.1143C88.9691 22.0257 88.4268 21.904 87.9619 21.749C87.1208 21.4723 86.6504 21.3118 86.5508 21.2676C85.3444 20.5814 84.376 19.8786 83.6455 19.1592C82.915 18.4398 82.2952 17.6263 81.7861 16.7188C81.5094 16.2096 81.194 15.291 80.8398 13.9629C80.6074 13.1107 80.4912 12.1146 80.4912 10.9746ZM91.7969 1.71094C90.834 1.71094 89.9818 1.93783 89.2402 2.3916C88.4987 2.83431 87.9398 3.32682 87.5635 3.86914C86.9326 4.78776 86.4844 5.79492 86.2188 6.89062C85.9531 7.97526 85.8203 9.29785 85.8203 10.8584C85.8203 11.8102 85.859 12.4909 85.9365 12.9004C85.9587 13.0332 85.9919 13.2601 86.0361 13.5811C86.1357 14.4001 86.252 14.9977 86.3848 15.374C86.8607 16.7796 87.1982 17.6484 87.3975 17.9805C87.7295 18.5449 88.222 19.1038 88.875 19.6572C89.207 19.945 89.6885 20.2106 90.3193 20.4541C90.9502 20.6865 91.5811 20.8027 92.2119 20.8027C93.4072 20.8027 94.514 20.526 95.5322 19.9727C96.5615 19.4082 97.3861 18.4564 98.0059 17.1172C98.6257 15.778 98.9355 14.0348 98.9355 11.8877C98.9355 11.0023 98.8747 9.80143 98.7529 8.28516L98.6699 7.96973C98.6367 7.88118 98.5814 7.6543 98.5039 7.28906C98.0944 5.47396 97.3086 4.09049 96.1465 3.13867C94.9954 2.18685 93.5456 1.71094 91.7969 1.71094ZM107.137 22.1309L107.17 20.8027C107.436 20.7363 107.757 20.6755 108.133 20.6201C108.852 20.5205 109.439 20.3766 109.893 20.1885C110.048 19.9339 110.147 19.6904 110.191 19.458C110.28 18.8382 110.324 17.9251 110.324 16.7188L110.291 9.66309C110.291 8.93262 110.252 7.02344 110.175 3.93555C110.153 3.10547 110.097 2.59082 110.009 2.3916C109.976 2.3252 109.92 2.26986 109.843 2.22559C109.666 2.10384 109.334 2.0319 108.847 2.00977C108.636 1.9987 108.094 1.93783 107.22 1.82715L107.17 0.648438L110.889 0.56543L116.317 0.382812L116.965 0.366211C117.098 0.355143 117.23 0.349609 117.363 0.349609C117.474 0.349609 117.767 0.355143 118.243 0.366211H119.306C120.147 0.355143 121.06 0.482422 122.045 0.748047C122.388 0.836589 122.842 1.02474 123.406 1.3125C123.971 1.58919 124.458 1.94889 124.867 2.3916C125.288 2.82324 125.598 3.31022 125.797 3.85254C125.996 4.39486 126.096 4.97038 126.096 5.5791C126.096 6.25423 125.946 6.86296 125.647 7.40527C125.349 7.93652 124.895 8.42904 124.286 8.88281C123.976 9.10417 123.262 9.4694 122.145 9.97852C123.816 10.3548 125.089 11.0465 125.963 12.0537C126.837 13.0498 127.274 14.1621 127.274 15.3906C127.274 16.1211 127.136 16.8848 126.859 17.6816C126.66 18.2793 126.323 18.8327 125.847 19.3418C125.216 20.0169 124.546 20.526 123.838 20.8691C123.141 21.2122 122.172 21.4945 120.933 21.7158C120.313 21.8265 119.372 21.8818 118.11 21.8818L115.288 21.8154C114.093 21.8154 112.671 21.8708 111.021 21.9814C110.557 22.0036 109.262 22.0534 107.137 22.1309ZM114.873 9.53027C115.316 9.59668 115.836 9.62988 116.434 9.62988C118.094 9.62988 119.35 9.32552 120.202 8.7168C121.054 8.09701 121.48 7.03451 121.48 5.5293C121.48 4.4668 121.076 3.58138 120.269 2.87305C119.461 2.16471 118.243 1.81055 116.616 1.81055C116.151 1.81055 115.532 1.87142 114.757 1.99316C114.757 2.24772 114.768 2.61296 114.79 3.08887C114.845 4.02962 114.873 5.34668 114.873 7.04004L114.856 8.43457C114.856 8.67806 114.862 9.04329 114.873 9.53027ZM115.072 20.1055C115.792 20.4043 116.461 20.5537 117.081 20.5537C118.343 20.5537 119.372 20.3656 120.169 19.9893C120.966 19.6019 121.547 19.0651 121.912 18.3789C122.277 17.6927 122.46 16.835 122.46 15.8057C122.46 14.7432 122.261 13.891 121.862 13.249C121.309 12.3636 120.639 11.7715 119.854 11.4727C119.068 11.1628 117.889 11.0078 116.317 11.0078C115.62 11.0078 115.139 11.0576 114.873 11.1572V13.1992L114.856 15.6562L114.906 19.4746C114.917 19.6517 114.973 19.862 115.072 20.1055ZM128.536 21.998L128.569 20.8691C128.78 20.8027 129.15 20.7197 129.682 20.6201C130.534 20.4541 131.049 20.3047 131.226 20.1719C131.414 20.0391 131.641 19.7181 131.906 19.209L135.26 10.4268L139.194 0.100586C139.56 0.111654 139.908 0.117188 140.24 0.117188H140.987L141.137 0.416016L144.025 7.25586C144.678 8.70573 145.265 10.1169 145.785 11.4893C146.305 12.8506 146.754 13.9629 147.13 14.8262C147.351 15.3464 147.656 16.1266 148.043 17.167C148.242 17.7314 148.547 18.4398 148.956 19.292C149.177 19.7568 149.343 20.028 149.454 20.1055C149.653 20.2715 149.974 20.3822 150.417 20.4375C150.871 20.4928 151.358 20.6201 151.878 20.8193C151.933 21.1846 151.961 21.4557 151.961 21.6328C151.961 21.7103 151.955 21.832 151.944 21.998C151.125 21.998 150.223 21.9593 149.238 21.8818C148.253 21.8044 147.368 21.7656 146.582 21.7656C145.708 21.7656 145.077 21.7767 144.689 21.7988L141.867 21.9482L141.054 21.9814C141.054 21.5941 141.07 21.2233 141.104 20.8691L142.946 20.4707C143.5 20.3268 143.821 20.2161 143.909 20.1387C144.02 20.028 144.075 19.9007 144.075 19.7568C144.075 19.613 144.048 19.4635 143.992 19.3086L143.328 17.6816L142.017 14.4277L135.675 14.4111C135.442 14.9424 134.961 16.2428 134.23 18.3125C134.02 18.8991 133.915 19.2975 133.915 19.5078C133.915 19.7956 133.993 20.0003 134.147 20.1221C134.402 20.3324 134.889 20.4818 135.608 20.5703C135.708 20.5924 136.101 20.6533 136.787 20.7529C136.798 21.1514 136.804 21.4281 136.804 21.583C136.804 21.7048 136.793 21.832 136.771 21.9648C136.084 21.9648 134.446 21.8708 131.856 21.6826L131.176 21.7988C130.357 21.9316 129.576 21.998 128.835 21.998H128.536ZM136.339 12.668C138.929 12.7012 140.456 12.7178 140.921 12.7178L141.336 12.7012C141.004 11.7161 140.572 10.5706 140.041 9.26465C139.51 7.94759 139.078 6.94596 138.746 6.25977L136.339 12.668ZM173.659 20.9688C173.681 21.1901 173.692 21.3561 173.692 21.4668C173.692 21.5664 173.681 21.749 173.659 22.0146C172.586 22.0146 171.551 21.9593 170.555 21.8486L169.874 21.832L169.326 21.7822C168.839 21.749 168.446 21.7324 168.147 21.7324C167.694 21.7324 166.283 21.8376 163.914 22.0479L163.267 22.0146C163.167 22.0146 163.023 22.0202 162.835 22.0312C162.78 21.7878 162.752 21.3783 162.752 20.8027C162.874 20.7363 163.278 20.6312 163.964 20.4873C164.971 20.277 165.718 20.028 166.205 19.7402L166.122 16.6191L166.155 13.3486L166.105 12.2363L166.122 11.7881L164.927 11.7549C164.229 11.7549 163.737 11.8324 163.449 11.9873C163.173 12.1312 162.924 12.3691 162.702 12.7012C162.492 13.0332 161.966 14.0016 161.125 15.6064C160.295 17.2002 159.609 18.6113 159.066 19.8398L158.07 22.0312L156.294 21.8652L151.828 22.0479H151.596L150.898 22.0312C150.887 21.8763 150.882 21.749 150.882 21.6494C150.882 21.4945 150.921 21.3285 150.998 21.1514C151.253 21.0518 151.623 20.9245 152.11 20.7695C152.697 20.5814 153.162 20.277 153.505 19.8564C153.859 19.4359 154.706 18.1022 156.045 15.8555C157.694 13.0775 158.823 11.5059 159.432 11.1406C156.211 10.2884 154.601 8.56185 154.601 5.96094C154.601 4.34505 155.22 3.00033 156.46 1.92676C157.711 0.85319 159.885 0.316406 162.984 0.316406C163.892 0.316406 164.733 0.360677 165.508 0.449219C166.537 0.548828 167.755 0.598633 169.16 0.598633L169.808 0.582031L170.405 0.56543C171.778 0.56543 172.79 0.615234 173.443 0.714844C173.477 0.814453 173.493 0.875326 173.493 0.897461V1.3291C173.493 1.66113 173.482 1.84928 173.46 1.89355C173.25 1.93783 172.918 1.97656 172.464 2.00977C171.767 2.0651 171.174 2.14811 170.688 2.25879C170.632 2.88965 170.604 4.33398 170.604 6.5918L170.688 10.958L170.671 12.502L170.737 14.876L170.721 16.3037C170.721 18.6058 170.759 19.9284 170.837 20.2715C171.235 20.4264 171.772 20.5482 172.447 20.6367C173.012 20.7142 173.416 20.8249 173.659 20.9688ZM166.188 10.2275L166.155 8.55078L166.139 7.78711L166.155 5.97754L166.122 4.61621V2.05957C165.812 2.00423 165.353 1.97656 164.744 1.97656C163.04 1.97656 161.795 2.29753 161.009 2.93945C160.223 3.57031 159.83 4.63835 159.83 6.14355C159.83 7.51595 160.24 8.54525 161.059 9.23145C161.889 9.91764 163.206 10.2607 165.01 10.2607L166.188 10.2275ZM0.405273 43.9746C0.405273 42.6022 0.670898 41.2243 1.20215 39.8408C1.58952 38.8447 2.13184 37.9316 2.8291 37.1016C3.52637 36.2715 4.40072 35.5355 5.45215 34.8936C6.50358 34.2406 7.57715 33.7757 8.67285 33.499C9.76855 33.2113 10.9915 33.0674 12.3418 33.0674C14.6439 33.0674 16.6416 33.499 18.335 34.3623C20.0283 35.2256 21.362 36.3932 22.3359 37.8652C23.5977 39.7799 24.2285 41.7887 24.2285 43.8916C24.2285 47.0238 23.1605 49.7077 21.0244 51.9434C18.8994 54.179 15.9388 55.2969 12.1426 55.2969C11.2018 55.2969 10.3219 55.236 9.50293 55.1143C8.88314 55.0257 8.34082 54.904 7.87598 54.749C7.03483 54.4723 6.56445 54.3118 6.46484 54.2676C5.25846 53.5814 4.29004 52.8786 3.55957 52.1592C2.8291 51.4398 2.20931 50.6263 1.7002 49.7188C1.4235 49.2096 1.10807 48.291 0.753906 46.9629C0.521484 46.1107 0.405273 45.1146 0.405273 43.9746ZM11.7109 34.7109C10.748 34.7109 9.89583 34.9378 9.1543 35.3916C8.41276 35.8343 7.85384 36.3268 7.47754 36.8691C6.84668 37.7878 6.39844 38.7949 6.13281 39.8906C5.86719 40.9753 5.73438 42.2979 5.73438 43.8584C5.73438 44.8102 5.77311 45.4909 5.85059 45.9004C5.87272 46.0332 5.90592 46.2601 5.9502 46.5811C6.0498 47.4001 6.16602 47.9977 6.29883 48.374C6.77474 49.7796 7.1123 50.6484 7.31152 50.9805C7.64355 51.5449 8.13607 52.1038 8.78906 52.6572C9.12109 52.945 9.60254 53.2106 10.2334 53.4541C10.8643 53.6865 11.4951 53.8027 12.126 53.8027C13.3213 53.8027 14.4281 53.526 15.4463 52.9727C16.4756 52.4082 17.3001 51.4564 17.9199 50.1172C18.5397 48.778 18.8496 47.0348 18.8496 44.8877C18.8496 44.0023 18.7887 42.8014 18.667 41.2852L18.584 40.9697C18.5508 40.8812 18.4954 40.6543 18.418 40.2891C18.0085 38.474 17.2227 37.0905 16.0605 36.1387C14.9095 35.1868 13.4596 34.7109 11.7109 34.7109ZM46.2422 33.8477C46.3861 34.1797 46.6794 35.126 47.1221 36.6865C47.3213 37.3949 47.4264 38.1475 47.4375 38.9443H45.9268C44.8643 37.4391 43.7686 36.36 42.6396 35.707C41.5107 35.043 40.249 34.7109 38.8545 34.7109C37.139 34.7109 35.7555 35.3805 34.7041 36.7197C33.2764 38.5348 32.5625 41.0638 32.5625 44.3066C32.5625 46.1882 32.6842 47.5273 32.9277 48.3242C33.3262 49.6191 33.8298 50.6761 34.4385 51.4951C34.9033 52.1149 35.512 52.6074 36.2646 52.9727C37.2386 53.4707 38.279 53.7197 39.3857 53.7197C40.6032 53.7197 41.7764 53.3434 42.9053 52.5908C44.0452 51.8271 45.1354 50.6927 46.1758 49.1875C46.5853 49.11 47.1221 49.0658 47.7861 49.0547C47.7419 49.4753 47.6699 49.9124 47.5703 50.3662C47.5371 50.5433 47.4098 51.2461 47.1885 52.4746L47.0391 52.9727L46.8066 53.7529C46.1315 54.2731 45.1797 54.666 43.9512 54.9316C42.7337 55.1862 41.234 55.3135 39.4521 55.3135C38.0908 55.3135 36.8014 55.1862 35.584 54.9316C34.3776 54.6771 33.3428 54.2731 32.4795 53.7197C31.2178 52.9229 30.2272 52.0596 29.5078 51.1299C28.7884 50.2002 28.2516 49.1875 27.8975 48.0918C27.5544 46.9961 27.3828 45.7676 27.3828 44.4062C27.3828 41.1081 28.4674 38.3854 30.6367 36.2383C32.8171 34.0911 35.5951 33.0176 38.9707 33.0176C40.3431 33.0176 41.6325 33.0895 42.8389 33.2334C44.0563 33.3662 45.1908 33.571 46.2422 33.8477ZM50.6582 32.5693H51.6875C51.765 32.6911 51.8203 32.7796 51.8535 32.835C52.1634 33.3662 52.4014 33.7148 52.5674 33.8809C52.7113 33.9251 53.4694 33.9473 54.8418 33.9473C55.694 33.9473 56.4521 33.9417 57.1162 33.9307L57.4482 33.8809L59.457 33.8643L63.209 33.8975H68.3389L69.3184 33.748C69.4622 33.6484 69.6172 33.3828 69.7832 32.9512C69.8275 32.8516 69.8883 32.7132 69.9658 32.5361L70.6963 32.5195C70.807 32.5195 70.973 32.5251 71.1943 32.5361C71.2054 33.2998 71.2109 34.4508 71.2109 35.9893L71.2275 37.4668L71.2109 38.3135C71.2109 38.6012 71.1888 38.8503 71.1445 39.0605C70.6908 39.2044 70.2923 39.293 69.9492 39.3262C69.6615 38.8945 69.346 38.2692 69.0029 37.4502C68.6709 36.6312 68.4606 36.1774 68.3721 36.0889C68.2393 35.945 68.0843 35.8509 67.9072 35.8066C67.6416 35.7513 66.4684 35.7236 64.3877 35.7236C64.0778 35.7236 63.6904 35.7458 63.2256 35.79C63.1592 36.2217 63.126 36.5758 63.126 36.8525L63.1426 39.0771V43.958L63.209 49.2207L63.1924 51.3789C63.1924 52.1426 63.2588 52.7181 63.3916 53.1055C63.5687 53.1829 63.8952 53.2549 64.3711 53.3213C64.4596 53.3324 64.8691 53.4209 65.5996 53.5869C65.9316 53.6644 66.2249 53.7529 66.4795 53.8525C66.5348 54.251 66.5625 54.4945 66.5625 54.583C66.5625 54.6826 66.5459 54.8265 66.5127 55.0146C66.2692 55.0257 66.07 55.0312 65.915 55.0312C64.7751 55.0312 63.8066 54.9925 63.0098 54.915C62.2129 54.8265 60.7686 54.7822 58.6768 54.7822C58.3447 54.7822 57.3708 54.8486 55.7549 54.9814C55.124 55.0257 54.7145 55.0479 54.5264 55.0479C54.5153 54.8818 54.5042 54.7546 54.4932 54.666L54.4766 54.2842V54.1514C54.7201 53.8304 55.1794 53.5924 55.8545 53.4375C57.0055 53.1608 57.8024 52.9118 58.2451 52.6904C58.3558 52.4801 58.4222 52.2035 58.4443 51.8604C58.5218 50.5322 58.5605 48.4183 58.5605 45.5186L58.4775 39.2432C58.4775 37.5166 58.4443 36.4707 58.3779 36.1055C58.3558 36.0059 58.3171 35.9339 58.2617 35.8896C58.2064 35.8343 58.1289 35.8011 58.0293 35.79C57.6862 35.7458 56.5684 35.7236 54.6758 35.7236C53.6354 35.7236 52.9382 35.8232 52.584 36.0225C52.1081 36.2992 51.3942 37.0518 50.4424 38.2803C50.1657 38.6344 49.9609 38.8115 49.8281 38.8115C49.319 38.5459 48.9925 38.3301 48.8486 38.1641C49.1917 37.4447 49.6676 36.0059 50.2764 33.8477C50.4535 33.2168 50.5807 32.7907 50.6582 32.5693ZM73.751 43.9746C73.751 42.6022 74.0166 41.2243 74.5479 39.8408C74.9352 38.8447 75.4775 37.9316 76.1748 37.1016C76.8721 36.2715 77.7464 35.5355 78.7979 34.8936C79.8493 34.2406 80.9229 33.7757 82.0186 33.499C83.1143 33.2113 84.3372 33.0674 85.6875 33.0674C87.9896 33.0674 89.9873 33.499 91.6807 34.3623C93.374 35.2256 94.7077 36.3932 95.6816 37.8652C96.9434 39.7799 97.5742 41.7887 97.5742 43.8916C97.5742 47.0238 96.5062 49.7077 94.3701 51.9434C92.2451 54.179 89.2845 55.2969 85.4883 55.2969C84.5475 55.2969 83.6676 55.236 82.8486 55.1143C82.2288 55.0257 81.6865 54.904 81.2217 54.749C80.3805 54.4723 79.9102 54.3118 79.8105 54.2676C78.6042 53.5814 77.6357 52.8786 76.9053 52.1592C76.1748 51.4398 75.555 50.6263 75.0459 49.7188C74.7692 49.2096 74.4538 48.291 74.0996 46.9629C73.8672 46.1107 73.751 45.1146 73.751 43.9746ZM85.0566 34.7109C84.0938 34.7109 83.2415 34.9378 82.5 35.3916C81.7585 35.8343 81.1995 36.3268 80.8232 36.8691C80.1924 37.7878 79.7441 38.7949 79.4785 39.8906C79.2129 40.9753 79.0801 42.2979 79.0801 43.8584C79.0801 44.8102 79.1188 45.4909 79.1963 45.9004C79.2184 46.0332 79.2516 46.2601 79.2959 46.5811C79.3955 47.4001 79.5117 47.9977 79.6445 48.374C80.1204 49.7796 80.458 50.6484 80.6572 50.9805C80.9893 51.5449 81.4818 52.1038 82.1348 52.6572C82.4668 52.945 82.9482 53.2106 83.5791 53.4541C84.21 53.6865 84.8408 53.8027 85.4717 53.8027C86.667 53.8027 87.7738 53.526 88.792 52.9727C89.8213 52.4082 90.6458 51.4564 91.2656 50.1172C91.8854 48.778 92.1953 47.0348 92.1953 44.8877C92.1953 44.0023 92.1344 42.8014 92.0127 41.2852L91.9297 40.9697C91.8965 40.8812 91.8411 40.6543 91.7637 40.2891C91.3542 38.474 90.5684 37.0905 89.4062 36.1387C88.2552 35.1868 86.8053 34.7109 85.0566 34.7109ZM114.441 44.3232C113.722 44.3232 113.03 44.5446 112.366 44.9873C111.702 45.43 110.662 46.8301 109.245 49.1875C107.84 51.5449 106.777 53.4873 106.058 55.0146C104.884 54.9372 104.06 54.8984 103.584 54.8984L99.251 54.998C99.2067 54.7214 99.1846 54.5166 99.1846 54.3838C99.1846 54.2731 99.1956 54.1182 99.2178 53.9189C99.3285 53.8525 99.583 53.764 99.9814 53.6533C101.066 53.3434 101.929 52.8786 102.571 52.2588C103.224 51.6279 104.182 50.2002 105.443 47.9756C106.517 46.083 107.43 44.7493 108.183 43.9746C108.935 43.1999 109.804 42.6576 110.789 42.3477C110.07 41.9049 109.278 40.9531 108.415 39.4922C106.932 36.9688 105.737 35.707 104.829 35.707C104.42 35.707 104.01 36.0059 103.601 36.6035C103.202 37.1901 102.859 37.5885 102.571 37.7988C102.295 37.998 101.913 38.0977 101.426 38.0977C100.795 38.0977 100.297 37.8763 99.9316 37.4336C99.5775 36.9909 99.4004 36.4818 99.4004 35.9062C99.4004 35.1315 99.6882 34.4674 100.264 33.9141C100.85 33.3496 101.697 33.0674 102.804 33.0674C103.91 33.0674 105.012 33.4382 106.107 34.1797C107.214 34.9102 108.576 36.6312 110.191 39.3428C110.999 40.693 111.691 41.6338 112.267 42.165C112.853 42.6852 113.578 43.0781 114.441 43.3438L114.425 38.2803C114.425 36.9743 114.358 36.1055 114.226 35.6738C113.882 35.3861 113.218 35.1204 112.233 34.877C111.647 34.7331 111.254 34.5837 111.055 34.4287L111.171 33.3994C111.37 33.3662 111.586 33.3496 111.818 33.3496C112.626 33.3496 113.429 33.4049 114.226 33.5156C115.034 33.6152 116.068 33.665 117.33 33.665L118.044 33.6318L120.036 33.5654C120.335 33.5544 120.744 33.5267 121.265 33.4824L121.846 33.4326L122.277 33.4492C122.299 33.5378 122.311 33.6595 122.311 33.8145C122.311 34.1908 122.299 34.4342 122.277 34.5449C121.602 34.7995 120.905 34.9876 120.186 35.1094C119.632 35.209 119.289 35.3031 119.156 35.3916C119.023 35.4801 118.957 35.7015 118.957 36.0557L119.007 40.4717L118.99 41.916L118.957 43.3438C119.61 43.1335 120.246 42.807 120.866 42.3643C121.497 41.9215 122.277 40.9144 123.207 39.3428C124.823 36.6312 126.179 34.9102 127.274 34.1797C128.381 33.4382 129.488 33.0674 130.595 33.0674C131.701 33.0674 132.543 33.3496 133.118 33.9141C133.705 34.4674 133.998 35.1315 133.998 35.9062C133.998 36.4818 133.815 36.9909 133.45 37.4336C133.096 37.8763 132.604 38.0977 131.973 38.0977C131.497 38.0977 131.115 37.998 130.827 37.7988C130.539 37.5885 130.196 37.1901 129.798 36.6035C129.388 36.0059 128.984 35.707 128.586 35.707C127.667 35.707 126.466 36.9688 124.983 39.4922C124.12 40.9531 123.329 41.9049 122.609 42.3477C123.594 42.6576 124.463 43.1999 125.216 43.9746C125.968 44.7493 126.882 46.083 127.955 47.9756C129.217 50.2002 130.169 51.6279 130.811 52.2588C131.464 52.8786 132.332 53.3434 133.417 53.6533C133.815 53.764 134.07 53.8525 134.181 53.9189C134.203 54.1182 134.214 54.2731 134.214 54.3838C134.214 54.5166 134.197 54.7214 134.164 54.998L132.321 54.9648L129.814 54.8984C129.184 54.8984 128.359 54.9372 127.341 55.0146C126.632 53.5094 125.57 51.5781 124.153 49.2207C122.748 46.8522 121.707 45.4466 121.032 45.0039C120.368 44.5501 119.688 44.3232 118.99 44.3232C118.957 44.7327 118.94 45.1035 118.94 45.4355L119.023 47.7266L119.04 49.0547L119.007 51.0469L119.04 51.6279L119.073 52.7734C119.306 53.028 119.859 53.2715 120.733 53.5039C121.243 53.6367 121.663 53.8138 121.995 54.0352C122.039 54.2565 122.062 54.4225 122.062 54.5332C122.062 54.6217 122.045 54.7601 122.012 54.9482C121.514 54.9704 121.115 54.9814 120.816 54.9814C119.986 54.9814 119.09 54.9482 118.127 54.8818L116.998 54.8154L115.521 54.8652L112.565 54.8486L110.988 54.8984L110.972 53.9688C111.071 53.8913 111.591 53.6755 112.532 53.3213L112.964 53.1387C113.451 52.9173 113.777 52.7845 113.943 52.7402C114.176 52.6074 114.32 52.4248 114.375 52.1924C114.441 51.9489 114.475 51.0856 114.475 49.6025L114.425 48.0088L114.441 44.3232ZM134.895 33.499C135.525 33.5322 136.073 33.582 136.538 33.6484C137.412 33.7702 138.425 33.8311 139.576 33.8311C139.975 33.8311 140.998 33.7979 142.647 33.7314C145.116 33.6318 147.346 33.582 149.338 33.582L152.343 33.5488C153.018 33.5488 154.014 33.6318 155.331 33.7979C155.53 34.0192 155.63 34.318 155.63 34.6943V38.1143L155.663 38.7949C155.663 38.8613 155.658 38.9609 155.646 39.0938L154.966 39.127C154.877 39.127 154.689 39.1159 154.401 39.0938C154.302 38.8724 154.169 38.5459 154.003 38.1143L153.339 36.9355C153.084 36.4375 152.73 35.9284 152.276 35.4082C152 35.3307 151.646 35.2865 151.214 35.2754C151.103 35.2643 150.766 35.2367 150.201 35.1924C149.172 35.1038 148.065 35.0596 146.881 35.0596C145.531 35.0596 144.324 35.0817 143.262 35.126C143.229 35.4027 143.212 36.4928 143.212 38.3965L143.245 41.1855V43.2773C143.522 43.3105 143.76 43.3271 143.959 43.3271C145.94 43.3271 147.351 43.2884 148.192 43.2109C149.034 43.1335 149.554 43.0283 149.753 42.8955C149.952 42.7516 150.129 42.5081 150.284 42.165C150.384 41.9215 150.577 41.1081 150.865 39.7246L151.081 39.708L152.044 39.7246C152.088 40.7096 152.11 41.4567 152.11 41.9658C152.11 43.1279 152.099 43.875 152.077 44.207C152.066 44.5391 152.061 44.7992 152.061 44.9873C152.061 45.2861 152.077 45.7676 152.11 46.4316C152.144 47.0846 152.16 47.5716 152.16 47.8926V48.2578H150.981C150.937 48.0807 150.854 47.7155 150.732 47.1621C150.511 46.1328 150.312 45.4909 150.135 45.2363C150.002 45.0371 149.781 44.8877 149.471 44.7881C149.249 44.7106 148.43 44.6719 147.014 44.6719C145.342 44.6719 144.086 44.7161 143.245 44.8047C143.234 45.0924 143.229 45.2806 143.229 45.3691C143.229 46.6862 143.251 47.7819 143.295 48.6562L143.262 52.2422C143.262 52.6628 143.411 52.9505 143.71 53.1055C144.164 53.3379 145.553 53.4541 147.877 53.4541C149.415 53.4541 150.721 53.3379 151.795 53.1055C152.536 52.9395 153.189 52.5687 153.754 51.9932C154.507 51.2516 155.132 50.2113 155.63 48.8721C155.973 48.8389 156.255 48.8223 156.477 48.8223C156.598 48.8223 156.781 48.8278 157.024 48.8389C156.991 49.1156 156.964 49.348 156.941 49.5361L156.842 50.0342L156.228 53.1719L155.929 55.0645C155.209 55.0977 154.639 55.1143 154.219 55.1143C153.599 55.1143 151.944 55.0589 149.255 54.9482C147.362 54.8708 145.082 54.832 142.415 54.832C141.087 54.832 139.454 54.8874 137.518 54.998H136.82L134.812 55.0645V53.9189C135.022 53.8636 135.442 53.8027 136.073 53.7363C137.224 53.6035 138.021 53.4264 138.464 53.2051C138.586 52.8841 138.646 52.4801 138.646 51.9932C138.646 51.805 138.641 51.484 138.63 51.0303L138.646 50.5156L138.597 44.2568L138.613 42.3809L138.53 39.7246L138.547 37.8486L138.397 35.79C138.397 35.7347 138.386 35.624 138.364 35.458C138.254 35.3363 138.088 35.2588 137.866 35.2256C137.744 35.2035 137.578 35.1702 137.368 35.126C136.737 34.9932 136.129 34.9157 135.542 34.8936C135.332 34.8825 135.088 34.8604 134.812 34.8271L134.895 33.499ZM159.382 54.9316C159.382 54.5996 159.415 54.2067 159.481 53.7529L161.557 53.3877C161.811 53.3324 162.116 53.2438 162.47 53.1221L162.686 48.9717C162.641 47.4775 162.619 46.3597 162.619 45.6182L162.636 45.2197C162.669 44.766 162.686 43.626 162.686 41.7998L162.652 41.3184L162.686 39.9238L162.669 38.4795V37.7656C162.669 37.1237 162.619 36.3711 162.52 35.5078C162.508 35.4303 162.464 35.2975 162.387 35.1094C162.298 35.0762 162.199 35.054 162.088 35.043C161.988 35.0319 161.883 35.0153 161.772 34.9932C161.341 34.9157 160.882 34.8604 160.395 34.8271L160.146 34.7607C159.847 34.7275 159.62 34.6833 159.465 34.6279C159.432 34.307 159.415 34.1022 159.415 34.0137C159.415 33.8809 159.448 33.6982 159.515 33.4658C159.736 33.4215 160.046 33.3994 160.444 33.3994C160.843 33.3994 161.119 33.3939 161.274 33.3828C162.625 33.5267 163.626 33.6042 164.279 33.6152C164.578 33.6152 164.877 33.6263 165.176 33.6484C165.486 33.6595 165.757 33.665 165.989 33.665C166.354 33.665 167.245 33.6097 168.662 33.499C168.895 33.4437 169.149 33.416 169.426 33.416C169.835 33.416 170.178 33.4382 170.455 33.4824C170.466 33.7148 170.472 33.8809 170.472 33.9805C170.472 34.1576 170.45 34.3734 170.405 34.6279L167.483 35.0928C167.24 35.2035 167.118 35.3639 167.118 35.5742L167.168 36.1885L167.185 36.4541L167.168 37.1846L167.135 37.749V37.8818C167.146 38.0036 167.151 38.1087 167.151 38.1973L167.135 40.3057C167.146 40.5049 167.151 40.6543 167.151 40.7539C167.151 40.8092 167.14 40.9863 167.118 41.2852C167.107 41.4622 167.102 41.6449 167.102 41.833C167.102 41.999 167.118 42.3919 167.151 43.0117C167.461 43.0671 167.721 43.1003 167.932 43.1113L170.389 43.1611H171.584L174.572 43.1777L177.478 43.0947C177.854 43.0947 178.252 43.056 178.673 42.9785C178.695 42.6022 178.712 41.6781 178.723 40.2061L178.756 39.459L178.656 36.6367L178.54 35.4746C178.507 35.3971 178.429 35.3252 178.308 35.2588C177.92 35.0374 177.146 34.7884 175.983 34.5117C175.773 34.4674 175.574 34.4121 175.386 34.3457C175.408 33.9583 175.452 33.6429 175.519 33.3994C175.762 33.3883 175.911 33.3828 175.967 33.3828L177.577 33.3994C178.606 33.5322 179.652 33.5986 180.715 33.5986C180.958 33.5986 181.152 33.5931 181.296 33.582L183.454 33.5156C183.653 33.5046 183.847 33.4935 184.035 33.4824C184.434 33.3939 184.843 33.3496 185.264 33.3496C185.585 33.3496 185.972 33.3662 186.426 33.3994C186.415 33.8311 186.387 34.224 186.343 34.5781C185.325 34.7884 184.655 34.9434 184.334 35.043C184.024 35.1315 183.709 35.2588 183.388 35.4248L183.288 35.7568V36.0391L183.305 36.4707L183.288 36.6865C183.266 36.9189 183.255 37.096 183.255 37.2178V37.6328C183.266 38.1309 183.271 38.4076 183.271 38.4629V40.5713L183.288 42.165L183.255 44.2734C183.244 44.7604 183.26 45.7565 183.305 47.2617V49.6191L183.338 51.5781C183.338 51.9434 183.327 52.3861 183.305 52.9062C183.537 52.9727 183.753 53.028 183.952 53.0723C184.993 53.2936 185.778 53.5205 186.31 53.7529L186.359 54.915C185.917 54.9261 185.657 54.9316 185.579 54.9316C185.048 54.9316 184.439 54.8984 183.753 54.832C182.845 54.7324 181.384 54.6826 179.37 54.6826C178.463 54.6826 177.289 54.7546 175.851 54.8984C175.696 54.8984 175.507 54.8652 175.286 54.7988C175.297 54.2897 175.325 53.93 175.369 53.7197L176.647 53.4209L177.992 53.2051C178.125 53.1719 178.297 53.1221 178.507 53.0557C178.629 52.1592 178.695 50.6706 178.706 48.5898L178.723 47.1787C178.656 46.5921 178.623 45.8893 178.623 45.0703C178.214 45.0371 177.771 45.015 177.295 45.0039L169.592 44.9209L169.442 44.9043L169.326 44.8877C169.249 44.8877 169.16 44.8932 169.061 44.9043C168.773 44.9154 168.529 44.9209 168.33 44.9209H167.865C167.655 44.9209 167.417 44.9596 167.151 45.0371L167.085 46.2822V46.498C167.107 46.7969 167.118 46.9906 167.118 47.0791V52.2256C167.118 52.5133 167.135 52.8066 167.168 53.1055L167.334 53.2051L169.774 53.5869C169.896 53.6312 169.99 53.6589 170.057 53.6699C170.201 53.7031 170.322 53.7529 170.422 53.8193C170.455 54.0739 170.472 54.2454 170.472 54.334C170.472 54.4779 170.45 54.6771 170.405 54.9316C170.007 54.9427 169.669 54.9482 169.393 54.9482C169.149 54.9482 168.922 54.9427 168.712 54.9316C168.612 54.9316 168.518 54.9261 168.43 54.915L166.089 54.8154C165.535 54.7601 164.761 54.7324 163.765 54.7324L163.416 54.749C162.951 54.7712 162.68 54.7878 162.603 54.7988C161.916 54.8874 160.843 54.9316 159.382 54.9316ZM200.271 42.3477C201.257 42.6576 202.125 43.1999 202.878 43.9746C203.631 44.7493 204.544 46.083 205.617 47.9756C206.879 50.2002 207.831 51.6279 208.473 52.2588C209.126 52.8786 209.994 53.3434 211.079 53.6533C211.478 53.764 211.732 53.8525 211.843 53.9189C211.865 54.1182 211.876 54.2731 211.876 54.3838C211.876 54.5166 211.854 54.7214 211.81 54.998L209.983 54.9648L207.477 54.8984C206.846 54.8984 206.016 54.9372 204.986 55.0146C204.289 53.5094 203.232 51.5781 201.815 49.2207C200.399 46.8522 199.358 45.4466 198.694 45.0039C198.03 44.5501 197.35 44.3232 196.652 44.3232C196.608 44.7327 196.586 45.1035 196.586 45.4355L196.669 47.7266C196.691 48.1914 196.702 48.6341 196.702 49.0547L196.669 51.0469L196.702 51.6279L196.735 52.7734C196.957 53.028 197.51 53.2715 198.396 53.5039C198.894 53.6367 199.314 53.8138 199.657 54.0352C199.69 54.2565 199.707 54.4225 199.707 54.5332C199.707 54.6217 199.696 54.7601 199.674 54.9482C199.176 54.9704 198.772 54.9814 198.462 54.9814C197.643 54.9814 196.746 54.9482 195.772 54.8818L194.66 54.8154L193.166 54.8652L190.228 54.8486L188.65 54.8984L188.634 53.9688C188.733 53.8913 189.254 53.6755 190.194 53.3213L190.626 53.1387C191.113 52.9173 191.439 52.7845 191.605 52.7402C191.827 52.6074 191.971 52.4248 192.037 52.1924C192.104 51.9489 192.137 51.0856 192.137 49.6025L192.087 48.0088L192.104 44.4893L192.087 41.999L192.12 41.2686L192.087 39.127L192.137 38.2803C192.137 36.9964 192.054 36.1276 191.888 35.6738C191.545 35.3861 190.881 35.1204 189.896 34.877C189.309 34.7331 188.91 34.5837 188.7 34.4287L188.816 33.3994C189.027 33.3662 189.248 33.3496 189.48 33.3496C190.288 33.3496 191.091 33.4049 191.888 33.5156C192.696 33.6152 193.73 33.665 194.992 33.665L195.706 33.6318L197.698 33.5654C197.997 33.5544 198.407 33.5267 198.927 33.4824L199.508 33.4326L199.923 33.4492C199.956 33.5378 199.973 33.6595 199.973 33.8145C199.973 34.1908 199.956 34.4342 199.923 34.5449C199.248 34.7995 198.55 34.9876 197.831 35.1094C197.278 35.209 196.935 35.3031 196.802 35.3916C196.669 35.4801 196.603 35.6794 196.603 35.9893C196.603 37.096 196.614 37.8265 196.636 38.1807L196.669 39.5918L196.636 40.6543V41.916L196.619 43.3438C197.272 43.1335 197.909 42.807 198.528 42.3643C199.148 41.9215 199.928 40.9144 200.869 39.3428C202.485 36.6312 203.841 34.9102 204.937 34.1797C206.043 33.4382 207.15 33.0674 208.257 33.0674C209.364 33.0674 210.205 33.3496 210.78 33.9141C211.367 34.4674 211.66 35.1315 211.66 35.9062C211.66 36.4818 211.478 36.9909 211.112 37.4336C210.758 37.8763 210.266 38.0977 209.635 38.0977C209.148 38.0977 208.76 37.998 208.473 37.7988C208.196 37.5885 207.853 37.1901 207.443 36.6035C207.045 36.0059 206.646 35.707 206.248 35.707C205.318 35.707 204.118 36.9688 202.646 39.4922C201.782 40.9531 200.991 41.9049 200.271 42.3477ZM211.345 54.998L211.378 53.8691C211.588 53.8027 211.959 53.7197 212.49 53.6201C213.342 53.4541 213.857 53.3047 214.034 53.1719C214.222 53.0391 214.449 52.7181 214.715 52.209L218.068 43.4268L222.003 33.1006C222.368 33.1117 222.717 33.1172 223.049 33.1172H223.796L223.945 33.416L226.834 40.2559C227.487 41.7057 228.074 43.1169 228.594 44.4893C229.114 45.8506 229.562 46.9629 229.938 47.8262C230.16 48.3464 230.464 49.1266 230.852 50.167C231.051 50.7314 231.355 51.4398 231.765 52.292C231.986 52.7568 232.152 53.028 232.263 53.1055C232.462 53.2715 232.783 53.3822 233.226 53.4375C233.679 53.4928 234.166 53.6201 234.687 53.8193C234.742 54.1846 234.77 54.4557 234.77 54.6328C234.77 54.7103 234.764 54.832 234.753 54.998C233.934 54.998 233.032 54.9593 232.047 54.8818C231.062 54.8044 230.176 54.7656 229.391 54.7656C228.516 54.7656 227.885 54.7767 227.498 54.7988L224.676 54.9482L223.862 54.9814C223.862 54.5941 223.879 54.2233 223.912 53.8691L225.755 53.4707C226.308 53.3268 226.629 53.2161 226.718 53.1387C226.828 53.028 226.884 52.9007 226.884 52.7568C226.884 52.613 226.856 52.4635 226.801 52.3086L226.137 50.6816L224.825 47.4277L218.483 47.4111C218.251 47.9424 217.77 49.2428 217.039 51.3125C216.829 51.8991 216.724 52.2975 216.724 52.5078C216.724 52.7956 216.801 53.0003 216.956 53.1221C217.211 53.3324 217.698 53.4818 218.417 53.5703C218.517 53.5924 218.91 53.6533 219.596 53.7529C219.607 54.1514 219.612 54.4281 219.612 54.583C219.612 54.7048 219.601 54.832 219.579 54.9648C218.893 54.9648 217.255 54.8708 214.665 54.6826L213.984 54.7988C213.165 54.9316 212.385 54.998 211.644 54.998H211.345ZM219.147 45.668C221.737 45.7012 223.265 45.7178 223.729 45.7178L224.145 45.7012C223.812 44.7161 223.381 43.5706 222.85 42.2646C222.318 40.9476 221.887 39.946 221.555 39.2598L219.147 45.668Z" fill="white"/>
</svg>
