<svg width="523" height="523" viewBox="0 0 523 523" fill="none" xmlns="http://www.w3.org/2000/svg">
<g filter="url(#filter0_d)">
<path fill-rule="evenodd" clip-rule="evenodd" d="M368.604 363.415C368.604 373.053 360.791 380.866 351.153 380.866C341.515 380.866 333.701 373.053 333.701 363.415C333.701 353.777 341.515 345.963 351.153 345.963C360.791 345.963 368.604 353.777 368.604 363.415ZM365.853 384.193C361.701 387.136 356.629 388.866 351.153 388.866C337.096 388.866 325.701 377.471 325.701 363.415C325.701 349.358 337.096 337.963 351.153 337.963C365.209 337.963 376.604 349.358 376.604 363.415C376.604 369.107 374.735 374.364 371.577 378.603L389.309 396.335C390.871 397.897 390.871 400.43 389.309 401.992C387.747 403.554 385.214 403.554 383.652 401.992L365.853 384.193Z" fill="white"/>
</g>
<defs>
<filter id="filter0_d" x="315.701" y="327.963" width="84.779" height="85.2004" filterUnits="userSpaceOnUse" color-interpolation-filters="sRGB">
<feFlood flood-opacity="0" result="BackgroundImageFix"/>
<feColorMatrix in="SourceAlpha" type="matrix" values="0 0 0 0 0 0 0 0 0 0 0 0 0 0 0 0 0 0 127 0"/>
<feOffset/>
<feGaussianBlur stdDeviation="5"/>
<feColorMatrix type="matrix" values="0 0 0 0 0 0 0 0 0 0 0 0 0 0 0 0 0 0 0.25 0"/>
<feBlend mode="normal" in2="BackgroundImageFix" result="effect1_dropShadow"/>
<feBlend mode="normal" in="SourceGraphic" in2="effect1_dropShadow" result="shape"/>
</filter>
</defs>
</svg>
