<?xml version="1.0" encoding="utf-8"?><svg viewBox="0 0 360 359" xmlns="http://www.w3.org/2000/svg" xmlns:xlink="http://www.w3.org/1999/xlink"><style>:root>svg{display:none}:root>svg:target{display:block}</style><svg fill="none" viewBox="0 0 41 41" id="ic_clear-filter" xmlns="http://www.w3.org/2000/svg"><circle cx="20.436" cy="20.516" r="19" stroke="#A3D39C" stroke-width="2"/><path d="M28.725 12.227L12.146 28.805M12.146 12.227l16.579 16.578" stroke="#A3D39C" stroke-width="2"/></svg><svg fill="none" viewBox="0 0 60 60" id="ic_close-quiz" xmlns="http://www.w3.org/2000/svg"><circle cx="30" cy="30" r="29" stroke="#A3D39C" stroke-width="2"/><path d="M42.434 17.566L17.567 42.434M17.566 17.566l24.868 24.868" stroke="#fff" stroke-width="2"/></svg><svg viewBox="0 0 9 17" id="ic_fb" xmlns="http://www.w3.org/2000/svg"><path d="M8.216 0H7.198c-2.83 0-5.134 2.015-5.134 4.492v1.896H.324c-.179 0-.324.127-.324.284v2.272c0 .156.145.284.324.284h1.74v6.956c0 .157.146.284.325.284h2.595c.18 0 .325-.127.325-.284V9.228H7.89c.179 0 .324-.128.324-.284V6.672c0-.157-.145-.284-.324-.284H5.309V4.492c0-.911.847-1.653 1.889-1.653h1.018c.18 0 .325-.127.325-.284V.284C8.54.127 8.395 0 8.216 0z"/></svg><svg fill="none" viewBox="0 0 41 51" id="ic_more" xmlns="http://www.w3.org/2000/svg"><path d="M28.928 25.586l-7.976 8.756-8.404-8.756M20.953 1v33.342" stroke="#1E1E1E" stroke-width="2" stroke-miterlimit="10" stroke-linecap="round" stroke-linejoin="round"/><circle cx="20.738" cy="30.336" r="19" transform="rotate(90 20.738 30.336)" stroke="#1E1E1E" stroke-width="2"/></svg><svg fill="none" viewBox="0 0 30 31" id="ic_pin-map" xmlns="http://www.w3.org/2000/svg"><circle cx="15" cy="15.168" r="15" fill="url(#epaint0_linear)"/><defs><linearGradient id="epaint0_linear" x1="11.056" y1="-3.777" x2="34.467" y2="19.635" gradientUnits="userSpaceOnUse"><stop stop-color="#CBA55F"/><stop offset=".932" stop-color="#96763C"/></linearGradient></defs></svg><svg fill="none" viewBox="0 0 35 36" id="ic_pin-map-jk" xmlns="http://www.w3.org/2000/svg"><circle cx="17.5" cy="18.1" r="17.5" fill="#0C0C0D"/></svg><svg fill="none" viewBox="0 0 35 36" id="ic_pin-map-open" xmlns="http://www.w3.org/2000/svg"><circle cx="17.5" cy="18" r="17.5" fill="#0C0C0D"/></svg><svg fill="none" viewBox="0 0 77 77" id="ic_play" xmlns="http://www.w3.org/2000/svg"><circle cx="38.5" cy="38.5" r="38.5" fill="#E2243C"/><path d="M48.293 36.498a2 2 0 010 3.004l-10.722 9.433c-1.292 1.136-3.321.219-3.321-1.502V28.567c0-1.72 2.029-2.638 3.321-1.502l10.722 9.433z" fill="#fff"/></svg><svg fill="none" viewBox="0 0 360 359" id="ic_play-first" xmlns="http://www.w3.org/2000/svg"><g clip-path="url(#iclip0)"><path opacity=".1" d="M179.949 357.066c98.012 0 177.466-79.454 177.466-177.466 0-98.011-79.454-177.465-177.466-177.465C81.938 2.135 2.484 81.589 2.484 179.6c0 98.012 79.454 177.466 177.465 177.466z" fill="#fff"/><path d="M179.949 297.151c64.921 0 117.55-52.629 117.55-117.55 0-64.921-52.629-117.55-117.55-117.55-64.921 0-117.55 52.629-117.55 117.55 0 64.921 52.629 117.55 117.55 117.55z" stroke="#fff" stroke-width="2" stroke-miterlimit="10"/><path d="M30.82 132.51c.253-.051.912-.051 1.976-.051.507 0 .964.051 1.47.203l-.253.963c-1.166.405-2.028.912-2.636 1.521a4.676 4.676 0 00-1.267 2.23c-.304 1.064-.102 2.078.557 2.991.913 1.216 2.383 2.129 4.461 2.686 1.217.304 2.078.507 2.636.456.912-.05 1.673-.152 2.281-.405a3.673 3.673 0 001.267-.913c.507-.506.811-1.165 1.014-1.875.203-.76.152-1.571-.101-2.433-.305-.862-.811-1.724-1.572-2.636 0-.254.102-.608.203-1.065.253.102.507.203.811.355a49.1 49.1 0 001.267.609l.305.202.456.304c.202.507.304 1.166.253 2.028-.05.811-.203 1.774-.557 2.94a14.52 14.52 0 01-.913 2.382 6.012 6.012 0 01-1.318 1.775c-.71.659-1.47 1.165-2.18 1.419-.71.253-1.47.456-2.23.507-.76.051-1.571-.051-2.433-.304-2.078-.558-3.65-1.724-4.613-3.498-.963-1.774-1.166-3.7-.608-5.829.253-.862.507-1.673.811-2.433.253-.811.558-1.47.912-2.129zM45.367 133.016l-.557-.253c.203-.71.203-1.166 0-1.369-.203-.203-1.115-.659-2.687-1.368l-2.129-.964-.253-.101c-.71-.304-1.166-.405-1.267-.304-.102.051-.304.304-.558.76-.101.152-.152.254-.203.254-.101-.051-.203-.051-.304-.102-.05 0-.152-.05-.304-.101.05-.152.101-.355.203-.608l.203-.406c.1-.203.202-.405.253-.608l.405-1.065.305-.608c.152-.101.659-.152 1.47-.203l3.092-.202 2.129-.051c-.254-.152-.71-.608-1.42-1.419-.76-.811-1.571-1.622-2.382-2.434l-.152-.202-.456-.456c-.102-.102-.152-.254-.051-.406l.05-.203.254-.557.355-.761c.101-.202.203-.557.355-1.013.101-.254.101-.406.152-.457 0-.05.05-.101.05-.152l.153.051.304.101.152.051c-.203.963-.203 1.47.101 1.622.05 0 .102.051.152.051l.406.152c.253.101.71.253 1.47.507l1.42.456c1.013.355 1.824.608 2.483.811.101 0 .152.051.152.051.152.05.203.05.253 0 .051-.051.203-.254.457-.609l.405-.507c.355.153.558.203.558.254l-.406.811a20.71 20.71 0 00-1.064 2.332 7.323 7.323 0 00-.355 1.115l-.102.355c-.354-.152-.557-.254-.608-.254 0-.202 0-.456.102-.811.05-.253.05-.405 0-.507-.051-.101-.203-.202-.457-.304l-1.165-.405-1.065-.355-2.99-.963 2.99 3.092c.203.253.507.507.862.811l.557.557c.304.305.507.457.609.558.253.203.405.355.456.406l-.152.557-2.535.152c-.608.051-1.064.102-1.368.102l-2.332.101-1.572.101 3.042 1.268.253.101.406.152 1.064.406c.406.152.71.202.913.101.203-.101.405-.304.659-.659l.203-.304.608.253c-.102.203-.152.406-.304.609-.254.456-.456.963-.71 1.571-.203.304-.355.76-.558 1.419zM48.257 106.961c.608-.202 1.216-.253 1.875-.202.609.05 1.166.202 1.622.456.862.456 1.521.963 1.876 1.47.608.811.912 1.673.912 2.534.051.862-.202 1.774-.659 2.687a5.446 5.446 0 01-2.027 2.23c-.811.456-1.572.71-2.332.71-.71 0-1.52-.203-2.382-.659-.457-.203-.811-.507-1.217-.913-.355-.354-.659-.76-.811-1.165-.152-.406-.304-.811-.405-1.268-.102-.608-.102-1.166 0-1.672.1-.507.304-1.065.608-1.673.81-1.318 1.774-2.18 2.94-2.535zm.608 7.046c.811.355 1.318.558 1.47.608a4.15 4.15 0 001.318.203c.254 0 .558-.152.862-.355.304-.202.557-.507.76-.912.254-.456.304-.963.152-1.419-.152-.457-.507-.963-1.064-1.42-.355-.304-1.065-.709-1.977-1.216-1.166-.609-2.13-.862-2.788-.71-.71.152-1.217.507-1.52 1.166-.254.507-.356.963-.204 1.47s.406.912.862 1.318c.254.253 1.014.659 2.13 1.267zM51.501 103.97a1.668 1.668 0 00-.304-.405l-.254-.304a87.615 87.615 0 00-1.064-1.217l-.253-.304.253-.405h.76c.051-.051.254-.355.609-.913l1.216-1.926.456-.71 1.369-2.129.101-.202c.051-.102.102-.203.102-.305 0-.05-.102-.202-.203-.354l-.101-.203c.05-.102.152-.304.304-.507l1.47.912.608.406c.405.253.608.405.659.456-.05.254-.152.456-.203.608-.203 0-.557-.05-1.064-.101-.457-.05-.71-.101-.811-.05-.102.05-.304.303-.558.709l-.304.507c-.101.203-.254.355-.406.557l.76.457.964.659 1.622 1.064c1.52.963 2.433 1.47 2.636 1.521.355-.304.557-.558.71-.761.05-.101.152-.152.253-.253l.558.355-.76 1.064c-.254.355-.457.659-.66.963l-.81 1.369-.71 1.166-.558-.355c.05-.101.05-.203.101-.304.152-.355.305-.71.355-.963-.405-.406-1.014-.862-1.875-1.369l-2.028-1.216c-1.014-.609-1.673-1.014-2.028-1.217-.202.254-.354.507-.456.659-.355.558-.507.912-.557 1.115 0 .203.101.609.304 1.166l.101.304c.05.203.102.355.05.406.102-.051-.1 0-.354.05zM67.62 101.284l-.405-.304c0-.152.05-.253.05-.304l.254-.862c.101-.354.152-.608.101-.658-.101-.203-.355-.507-.81-.812l-3.498-2.585-4.36-3.193c-.304-.203-.608-.304-.81-.304-.203 0-.609.202-1.116.608l-.456-.355c.304-.659.557-1.216.71-1.723.101-.355.202-.913.202-1.673l.304-.456.254.202.912.71c.051.05.102.101.254.203.101-.76.203-1.318.355-1.724.202-.557.557-1.166 1.013-1.723.457-.608 1.014-1.014 1.673-1.217.05 0 .102-.05.203-.05.405-.152.811-.203 1.064-.152.609.05 1.217.152 1.673.304.355.152.811.355 1.217.71.608.456 1.064.912 1.368 1.419.305.456.507 1.064.66 1.774.151.71.1 1.368-.051 1.926-.152.558-.406 1.115-.811 1.572-.355.456-.66.81-.862.963a5.95 5.95 0 01-1.369.76l.152.152.254.152c.05.05.152.101.253.152.051.05.254.203.66.558l1.621 1.166c.051.05.152.101.355.304l.102.05c.202.153.405.254.506.305h.305c.05-.051.152-.051.202-.102.152-.152.305-.304.457-.405.152-.102.253-.254.405-.355.101 0 .203.05.304.101.05.05.152.102.254.203l-.102.152c-.253.355-.456.558-.557.71l-1.116 1.216-.253.304-.253.305-.203.304-.355.507c-.152.202-.253.405-.406.608-.152.203-.253.405-.304.456v.101zm-3.7-8.009c.101.051.152.051.203.102.304.152.557.203.76.203.355 0 .66-.102.913-.305.354-.253.658-.557.861-.81.254-.305.406-.66.507-1.014.102-.406.102-.76 0-1.065 0-.05 0-.101-.05-.203a1.106 1.106 0 00-.153-.253 4.058 4.058 0 00-1.165-1.47c-.913-.71-1.927-1.065-2.991-.963-.76.05-1.42.405-1.977 1.115a4.276 4.276 0 00-.76 1.673c.202.203.861.659 1.875 1.47l1.673 1.267s.101.101.304.253zM70.51 76.193l-.66-.405c.71-.66 1.217-1.116 1.521-1.47l.406-.406.608-.608c.66-.71 1.115-1.267 1.318-1.572l.456.609-.507.659c-.253.253-.304.456-.253.557.05.102.507.507 1.267 1.267l.507.507.66.66c1.723 1.621 2.686 2.433 2.838 2.433.355-.254.659-.457.861-.609.102-.05.203-.152.305-.203l.456.457-.558.507c-.557.557-.963.912-1.216 1.216l-1.927 2.23-.456-.456c.05-.101.102-.203.203-.304.254-.355.456-.659.558-.862-.254-.354-.913-1.013-1.927-1.977l-.557-.506-.913-.76c-.101-.051-.202-.203-.405-.457.253 3.346.405 5.373.355 6.184.304.203.507.355.71.456.354-.253.658-.456.861-.608.102-.05.152-.152.254-.203l.506.406-.557.507-1.217 1.216-1.926 2.23-.456-.456a1.06 1.06 0 01.203-.304c.253-.355.456-.659.557-.861a6.313 6.313 0 00-.963-1.065l-1.267-1.166-1.166-1.115-.456-.405-.507-.457c-.456-.456-.76-.659-.862-.71-.101-.05-.253.051-.507.305-.101.101-.304.253-.557.507l-.66-.406a53.75 53.75 0 001.521-1.47l.406-.405.608-.609c.66-.71 1.115-1.267 1.318-1.571l.456.608-.507.66c-.253.253-.354.456-.253.557.05.101.507.507 1.267 1.267l.456.456.558.558 1.52 1.42-.253-2.94c-.101-.862-.152-1.572-.152-2.13 0-.557-.05-.963-.101-1.166-.152-.152-.203-.253-.254-.304-.253-.203-.507-.203-.81.102-.305.05-.508.253-.71.405zM77.1 71.732c-.051-.1-.102-.253-.203-.456l-.153-.355a18.738 18.738 0 00-.71-1.47l-.151-.354.355-.355c.05 0 .101.05.152.05.355.102.557.153.608.153.05-.051.355-.254.862-.71l1.672-1.52.66-.559 1.875-1.672.152-.152c.101-.102.152-.203.152-.254 0-.05 0-.203-.101-.405l-.05-.203c.1-.101.252-.253.455-.405l1.166 1.267.507.557c.304.355.456.558.507.609a2.186 2.186 0 01-.355.506c-.203-.05-.558-.202-1.014-.405-.405-.203-.659-.254-.76-.254-.101 0-.355.203-.76.558l-.457.406a5.373 5.373 0 01-.557.456l.608.659.76.912 1.268 1.47c1.216 1.369 1.926 2.079 2.129 2.18.405-.203.71-.406.912-.507l.304-.152.456.507-1.013.81-.913.761-1.166 1.115-.963.913-.405-.507a.888.888 0 01.203-.254c.253-.304.456-.608.608-.861-.304-.507-.76-1.116-1.42-1.825l-1.622-1.724c-.76-.861-1.318-1.47-1.571-1.723-.253.203-.456.355-.608.507-.507.456-.76.76-.811.912-.051.203-.102.609-.051 1.217v.304c0 .203 0 .355-.05.406-.051-.153-.254-.102-.508-.153zM87.339 63.926c-.203-.608-.355-1.065-.355-1.267-.05-.71.05-1.369.203-1.927.152-.557.355-.963.608-1.267.304-.405.558-.71.811-.862.558-.405 1.014-.71 1.42-.861.405-.152.76-.254 1.115-.254.506 0 .912 0 1.317.102.355.101.76.253 1.116.456.354.203.71.557 1.064.963l-.963.71c-.254.202-.862.608-1.825 1.267a3.715 3.715 0 00-.71.507c-.05.05-.354.253-.912.71l-.76.557c.05.101.101.152.152.203.253.304.507.608.861.912.355.304.66.507 1.014.66.355.151.71.202 1.065.253.355 0 .71 0 1.014-.102l.608-.203c.456-.354.76-.557.862-.71.253-.253.405-.506.557-.76.152-.253.304-.608.406-1.064h.81c-.1.963-.303 1.774-.658 2.433a5.172 5.172 0 01-1.572 1.774c-.456.355-.861.608-1.216.71a3.577 3.577 0 01-1.42.304c-.456 0-.963-.05-1.419-.203a5.834 5.834 0 01-1.267-.608c-.456-.355-.811-.659-1.014-.912-.355-.609-.659-1.065-.912-1.521zm4.815-4.207c-.253-.305-.557-.609-.912-.811-.355-.203-.71-.305-1.115-.254-.406.05-.71.152-.963.355-.406.304-.609.71-.66 1.318-.05.558.102 1.166.507 1.774l2.028-1.47c.152-.101.304-.253.507-.456.152-.152.253-.254.355-.304.05-.051.152-.102.253-.152zM112.228 44.208l.253.76c-.355.254-.608.406-.659.457-.304.152-.405.304-.405.456 0 .152.253.608.709 1.47l.456.81.507.863.609 1.165c.152.305.304.558.456.862.253.456.507.811.709 1.014a6.262 6.262 0 001.014-.304c.102-.05.203-.102.304-.102l.355.558-1.166.558c-.354.202-.709.354-1.064.557l-1.369.811-1.166.71-.304-.608c.051-.051.152-.152.254-.203.355-.254.608-.456.811-.66-.254-.81-.963-2.179-2.028-4.156l-1.318-2.28c-.405.253-.811.456-1.216.709-.507.304-.913.507-1.217.659l-.811.405c-.152.102-.355.203-.507.305l.558.963 2.433 4.41c.203.355.405.659.659.912.456-.101.76-.203 1.014-.304.101-.05.202-.101.304-.101l.355.557-1.166.558c-.355.203-.71.355-1.065.557l-1.368.811-1.166.71-.304-.608c.05-.05.152-.152.253-.203.304-.253.608-.456.811-.659-.152-.507-.507-1.267-1.064-2.23l-1.065-1.876-.71-1.267c-.354-.608-.557-.912-.608-.963-.101-.05-.304 0-.608.152-.152.101-.406.203-.71.304l-.507-.608 1.268-.608.608-.305.659-.355c.152-.1.355-.202.608-.304l2.129-1.166 2.94-1.672.76-.406c.862-.507 1.47-.861 1.775-1.115zM120.237 56.373l-.203-.456c.101-.102.152-.203.203-.254l.658-.608c.254-.254.406-.456.406-.558 0-.253-.101-.608-.304-1.115l-1.774-3.954-2.231-4.917c-.152-.355-.354-.557-.557-.659-.203-.101-.609-.101-1.267 0l-.254-.507c.608-.405 1.065-.81 1.47-1.165.254-.254.608-.71 1.014-1.318l.507-.254.152.254.456 1.064c0 .05.051.152.152.304.406-.608.811-1.064 1.115-1.318.457-.405 1.065-.76 1.724-1.014.659-.304 1.368-.405 2.027-.253.051 0 .102 0 .203.05.456.102.76.203 1.014.356.558.354.963.71 1.318 1.115.253.304.507.71.71 1.216.304.71.456 1.318.506 1.876.051.557-.05 1.166-.304 1.875-.253.66-.557 1.217-.963 1.673-.405.456-.912.76-1.47 1.014a5.472 5.472 0 01-1.216.405c-.507.051-1.014.051-1.572 0 .051.102.051.203.051.254l.152.253c.051.051.101.152.101.254 0 .05.152.304.304.81l.812 1.826c0 .05.05.152.152.405l.05.102c.102.253.203.405.304.507.051.05.153.1.254.152h.253c.203-.051.406-.102.609-.102.152-.05.354-.05.557-.101.102.05.152.152.203.253.051.05.051.203.152.304l-.203.102c-.405.152-.659.253-.811.355l-1.571.507-.355.152-.355.152-.355.202-.507.254c-.202.101-.405.203-.659.355-.253.152-.405.202-.506.253l-.152-.101zm.709-8.82l.152.152c.203.253.406.456.558.507.304.152.608.202.912.152.456-.051.811-.152 1.115-.304a2.35 2.35 0 00.913-.66c.253-.303.456-.608.557-.912 0-.05.051-.101.051-.203v-.304a3.662 3.662 0 00-.304-1.825c-.456-1.064-1.166-1.875-2.129-2.331-.659-.355-1.419-.304-2.23.05-.507.203-1.014.558-1.521 1.116.101.253.405 1.013.912 2.23l.862 1.926c0 .102.051.203.152.406zM129.817 40.152c0-.659 0-1.115.101-1.318.203-.71.456-1.267.811-1.723.355-.456.659-.811.963-1.014a3.617 3.617 0 011.065-.558c.659-.202 1.216-.354 1.622-.354.406 0 .811 0 1.166.1.456.153.862.305 1.216.508.305.203.609.456.913.81.253.305.507.761.709 1.268l-1.165.355c-.305.101-1.014.304-2.129.608-.406.102-.71.152-.862.203-.051 0-.406.152-1.115.406l-.913.304c0 .101.051.202.051.253.101.355.304.76.507 1.115s.456.71.76.963c.304.254.609.457.913.558.304.101.659.203.963.203h.659c.557-.152.861-.304 1.064-.406.304-.203.558-.355.811-.557.203-.203.456-.457.761-.862.304.101.557.203.76.304-.406.862-.862 1.571-1.419 2.078a5.334 5.334 0 01-2.028 1.166c-.558.203-1.014.254-1.369.304-.506.051-.963-.05-1.419-.152a4.321 4.321 0 01-1.267-.659 4.313 4.313 0 01-.963-.963c-.355-.456-.558-.861-.659-1.166-.304-.71-.456-1.267-.507-1.774zm5.88-2.433c-.152-.406-.355-.71-.608-1.064a1.762 1.762 0 00-.963-.609 1.726 1.726 0 00-1.014 0c-.456.152-.811.507-1.065 1.014-.253.507-.253 1.166-.101 1.876l2.382-.76c.152-.051.355-.153.659-.254.203-.102.355-.152.406-.152.101 0 .203 0 .304-.05zM153.236 42.383c-.152.05-.254.1-.304.1l-.153.052a3.156 3.156 0 01-.456-.609c-.557-.76-1.014-1.267-1.419-1.419-.406-.152-1.115-.101-2.078.101l-1.47.355-2.281.507c-.558.152-.964.254-1.116.355-.152.101-.253.304-.354.558-.102.253-.153.76-.254 1.47-.051.456-.051.71-.101.76-.051 0-.102.05-.203.05-.152.051-.203.051-.253.102-.051 0-.102 0-.203.05-.051-.456-.102-.81-.102-1.114-.152-1.116-.253-1.825-.202-2.23.101-.052.202-.102.304-.153.203-.05.405-.152.557-.203.304-1.419.71-3.599 1.065-6.539l.203-1.52.152-.913.861-.203c.152.203 1.065 1.37 2.788 3.6 1.724 2.23 2.687 3.396 2.89 3.548.202.152.405.253.76.304.203.05.355.101.406.203.101.101.202.557.456 1.368l.507 1.42zm-4.715-2.586c-.253-.354-.506-.76-.811-1.216l-1.318-1.977c-.709-1.115-1.165-1.774-1.317-1.926l-.811 6.133c.912-.152 1.824-.304 2.686-.557a10.707 10.707 0 001.571-.457zM164.286 38.074l-.253.05-1.47.203-.761.102-.811.1-.557.102-1.116.203c-.05-.101-.101-.203-.101-.304v-.406l.456-.152c.507-.152.761-.304.71-.456a.812.812 0 00-.152-.405c-.102-.102-.203-.355-.406-.71a36.801 36.801 0 00-1.115-1.825l-.405-.659c-.305-.507-.609-.963-.862-1.369-.051.254-.152.66-.254 1.268-.101.507-.253 1.216-.456 2.18-.253 1.216-.405 1.976-.355 2.382.203 0 .457 0 .761-.05h.152c.101 0 .253-.052.456-.052h.152c.051.102.051.254.051.355.05.203 0 .355-.051.406l-.203.05c-.101.051-.152.051-.202.051l-.913.102-.557.101c-.355 0-.659.05-1.014.101l-.456.102-.457.101-.253.05c-.051-.151-.051-.253-.051-.303v-.305c.71-.304 1.166-.506 1.42-.71.101-.253.202-.76.354-1.47.305-1.368.71-3.091 1.268-5.068.152-.558.253-1.014.304-1.318.05-.254.101-.507.203-.71l.861-.152c1.217 1.926 2.231 3.549 3.042 4.714l1.419 2.23.456.66s.203.05.558.101c.304.05.507.101.557.152.051.05.051.152.051.304v.254zM174.475 29.304c.507.406.861.913 1.115 1.47.253.558.405 1.116.456 1.622.051.963-.051 1.775-.304 2.383-.406.912-.963 1.622-1.724 2.129-.76.507-1.622.76-2.635.81-1.116.051-2.129-.151-2.94-.607-.811-.457-1.42-1.014-1.775-1.622-.354-.609-.608-1.42-.659-2.383-.05-.507 0-.963.153-1.47.152-.507.304-.963.608-1.318.304-.355.557-.71.862-.963.456-.355.963-.659 1.419-.811a7.272 7.272 0 011.774-.355c1.521-.101 2.737.304 3.65 1.115zm-5.728 4.157c.101.912.202 1.42.253 1.571.102.507.304.913.507 1.217.152.203.406.405.71.557.355.153.709.203 1.166.203a2.13 2.13 0 001.318-.608c.354-.355.557-.913.709-1.622.051-.456.102-1.267 0-2.332-.101-1.318-.355-2.23-.811-2.788a2.103 2.103 0 00-1.774-.71c-.558.051-1.014.203-1.369.558-.354.355-.557.811-.709 1.42-.102.405-.102 1.216 0 2.534zM186.235 33.056c-.558 0-.963.101-1.217.253-.253.152-.76.71-1.47 1.52l-1.115 1.37c-.405.456-.659.81-.811.963-.76-.102-1.318-.152-1.673-.152H178.226v-.254l.051-.355c.608-.152 1.013-.253 1.216-.405.254-.152.608-.507 1.166-1.166 1.014-1.217 1.723-1.977 2.18-2.332.456-.355.861-.557 1.216-.659-.152-.152-.405-.507-.76-1.014-.71-1.013-1.267-1.52-1.673-1.52-.152 0-.355.101-.558.304-.304.355-.659.507-.963.456-.354 0-.608-.152-.76-.355-.203-.203-.253-.456-.253-.76 0-.355.152-.66.456-.913.304-.253.709-.354 1.216-.354 1.065.05 2.129.912 3.194 2.534.507.76.862 1.267 1.166 1.572.304.253.709.506 1.216.658l.102-2.078c.05-.507 0-.81-.051-.963-.051-.152-.254-.203-.558-.203-.152 0-.405-.05-.76-.101l-.101-.76c.963.101 1.672.202 2.078.202h.557l.862.051c.963.05 1.673.05 2.078 0l-.152.76-.811.102c-.304 0-.456 0-.507.05-.05.051-.101.254-.152.558 0 .05 0 .152-.05.355-.102.557-.102.912-.152 1.115l-.051 1.064a3.289 3.289 0 001.267-.506c.304-.203.761-.71 1.318-1.42 1.217-1.52 2.332-2.23 3.396-2.18.507.051.913.203 1.166.457.254.253.406.608.355.963a1 1 0 01-.304.71c-.203.202-.456.304-.811.253-.355 0-.659-.203-.963-.558-.203-.253-.355-.354-.507-.354-.254 0-.507.05-.76.253-.254.203-.609.558-1.116 1.115-.405.456-.709.76-.861.913a4.03 4.03 0 011.267.861c.355.406.963 1.217 1.825 2.434.456.71.811 1.115 1.014 1.267.202.152.608.355 1.165.557v.609c-.101 0-.253-.051-.557-.051a8.33 8.33 0 00-1.166-.101c-.456 0-1.014-.051-1.724 0-.101-.152-.354-.507-.709-1.014l-.963-1.47c-.609-.913-1.014-1.47-1.318-1.673-.254-.203-.659-.355-1.217-.355l-.152 2.484v.76c.152.152.507.305 1.014.355.101 0 .203.05.253.05v.457c0 .05 0 .102-.05.152h.05l-1.165-.101c-.507-.05-1.014-.102-1.47-.152H184.511c0-.102-.05-.254 0-.355 0-.05 0-.152.051-.304.152-.051.254-.102.406-.102.152 0 .253-.05.253-.05h.406c.152 0 .253-.051.304-.051.101-.101.152-.862.253-2.332l.051-1.064zM199.11 32.65c.304-.557.507-.963.71-1.166.507-.507 1.014-.912 1.52-1.166.507-.253.964-.405 1.318-.456.507-.05.913-.05 1.166 0a8.338 8.338 0 011.622.406c.406.152.71.355.963.608.355.355.659.659.812 1.014.202.304.354.71.456 1.115.101.405.101.912.05 1.47l-1.216-.203c-.355-.05-1.065-.203-2.18-.456-.405-.101-.709-.152-.862-.203-.05 0-.456-.05-1.165-.152l-.913-.152c-.051.102-.051.203-.051.254-.05.405-.101.81-.05 1.216 0 .456.101.811.253 1.166.152.355.304.659.558.963.253.254.507.507.76.66l.608.303c.558.102.913.152 1.116.102.354 0 .659-.051.963-.152.304-.051.608-.203 1.064-.406.254.254.406.456.558.608-.761.609-1.47 1.014-2.231 1.217a5.308 5.308 0 01-2.382.101c-.558-.101-1.014-.203-1.369-.355a3.935 3.935 0 01-1.216-.81c-.355-.305-.608-.71-.862-1.166-.203-.457-.355-.862-.405-1.318-.102-.558-.102-1.014-.051-1.37.152-.607.304-1.165.456-1.672zm6.387.558a3.262 3.262 0 00-.051-1.217 2.023 2.023 0 00-.557-.963c-.304-.253-.609-.405-.913-.456-.507-.101-.963.05-1.419.405-.456.355-.76.913-.912 1.622l2.433.406c.152 0 .405.05.659.05.202 0 .355.051.456.051.051.051.152.051.304.102zM214.368 36.503l.405.152 1.47.355.406.101.709.203c.305.05.659.152 1.166.253l.304-1.216c.254-1.014.406-1.622.406-1.774 0-.152-.152-.305-.558-.406-.152-.05-.405-.152-.76-.253l.051-.76c.912.303 1.571.506 2.027.608l.558.152.862.202c.963.254 1.622.406 2.027.406l-.304.71c-.456-.051-.71-.102-.811-.102-.304-.05-.507-.05-.608 0-.051.102-.203.456-.355 1.115l-.355 1.318-.507 1.876c-.405 1.52-.557 2.382-.507 2.636.406.202.71.355.963.456l.305.152-.152.659-1.268-.406c-.405-.101-.76-.253-1.115-.304l-1.571-.355-1.318-.304.152-.659h.355c.405.051.76.051 1.064.051.304-.659.608-1.47.811-2.433l.152-.608a54.69 54.69 0 01-1.318-.305c-.608-.152-1.064-.304-1.368-.354l-.913-.254a2.533 2.533 0 00-.608-.101l-.101.557-.406 1.521c-.101.406-.152.76-.101 1.065.405.202.709.354.963.456l.304.152-.152.659-1.267-.406c-.406-.101-.761-.253-1.116-.304l-1.571-.355-1.318-.304.152-.659h.355c.406.05.76.05 1.065.05.202-.455.506-1.317.811-2.534l.709-2.99c.203-.862.304-1.369.254-1.42-.051-.05-.203-.152-.507-.253-.152-.05-.406-.152-.761-.254l.051-.76c.913.304 1.572.507 2.028.608l.557.152.811.203c.963.254 1.622.406 2.028.406l-.304.71c-.456-.051-.71-.102-.811-.102-.355-.101-.507-.05-.609 0-.05.101-.202.456-.354 1.115-.203.862-.406 1.47-.507 1.876zM232.363 38.48l.101-.76a25.03 25.03 0 001.926.81l.558.203.811.305c.912.354 1.571.557 1.977.608l-.406.659-.76-.203c-.304-.101-.507-.152-.608-.05-.051.1-.304.658-.71 1.672l-.253.659-.355.862c-.811 2.23-1.166 3.396-1.115 3.599.355.253.659.405.912.557.101.051.203.102.304.203l-.203.608-.709-.304c-.71-.304-1.217-.507-1.572-.659l-2.788-.912.254-.609c.101 0 .203.051.355.051.405.102.76.152 1.014.152.253-.405.608-1.267 1.064-2.534l.254-.71.354-1.115c.051-.101.102-.304.254-.558-2.94 1.572-4.816 2.484-5.525 2.738-.102.354-.152.608-.152.861.354.254.658.406.912.558l.304.152-.203.608-.709-.304c-.71-.304-1.268-.507-1.572-.659l-2.788-.912.254-.608c.101 0 .203.05.355.05.405.102.76.152 1.013.152.254-.405.457-.861.609-1.318l.608-1.672.558-1.521.202-.558.254-.659c.203-.608.304-.963.304-1.064 0-.102-.152-.254-.507-.355-.152-.05-.355-.152-.71-.304l.102-.76c.861.405 1.52.658 1.926.81l.558.203.811.304c.912.355 1.571.558 1.976.609l-.354.659-.761-.203c-.355-.102-.557-.152-.608-.05-.051.1-.304.658-.659 1.672l-.253.608-.305.71-.709 1.977 2.585-1.369c.76-.405 1.419-.76 1.926-1.014.507-.253.862-.405 1.014-.557.101-.203.152-.304.152-.355.101-.304-.051-.507-.405-.71a3.474 3.474 0 01-.862-.253zM246.049 52.926c-.051.102-.051.203-.101.253-.051.051-.102.153-.152.254a14.326 14.326 0 01-1.217-.659l-.253-.152-.507-.304-.659-.355-1.673-.608-.253-.152-.153-.102c0-.05.051-.152.102-.253.05-.102.101-.203.101-.304.102 0 .304.05.507.101.507.152.862.203.963.152.102-.203.254-.557.507-.963.152-.253.456-.912.913-1.876l-.406-.202c-.304-.152-.608-.203-.912-.102-.305.051-.71.304-1.268.71l-1.622 1.217c-.405.354-.659.557-.811.608l-.862-.456a22.703 22.703 0 01-1.317-.609l-.659-.253-.305-.152c.051-.102.051-.152.102-.203.051-.101.101-.203.152-.253.456.152.862.202 1.166.152.304-.051.709-.304 1.267-.71.912-.659 1.571-1.064 1.977-1.166a2.525 2.525 0 011.216-.152c-.76-.557-1.267-1.064-1.52-1.52-.254-.457-.254-.964 0-1.47.304-.609.811-1.014 1.571-1.116.761-.101 1.673.102 2.737.608l1.268.66 1.368.71c.406.253.811.455 1.166.607.406.203.71.355.963.507v.102l-.202.456c-.102 0-.254-.05-.457-.152l-.152-.05-.101-.052-.254-.05c-.05 0-.152-.05-.202-.05-.051.1-.102.151-.102.202l-.101.253-.102.203-.253.456-.304.608-1.267 2.84-.355.76c-.254.557-.456.963-.507 1.267.101.203.304.355.558.507.202.05.304.152.405.253zm-1.47-5.728l.304-.659.152-.304.913-1.926c-.102-.102-.304-.152-.507-.254-.71-.304-1.267-.405-1.724-.253-.456.152-.76.456-.963.862-.456.912.051 1.672 1.369 2.331l.456.203zM262.979 47.452c1.623.456 2.941 1.065 4.056 1.774 1.166.76 1.977 1.673 2.484 2.738.506 1.064.456 1.977-.153 2.889-.304.507-.76.862-1.368 1.115-.608.253-1.521.253-2.788-.05.76.81 1.267 1.621 1.47 2.585.203.912 0 1.774-.558 2.635-.709 1.065-1.774 1.623-3.143 1.673-1.368.05-2.99-.608-4.916-1.875-1.369-.913-2.332-1.775-2.788-2.586-.457-.81-.507-1.419-.203-1.926.203-.304.507-.557.912-.608.406-.101.811 0 1.217.304.304.203.507.456.659.76.152.305.203.811.253 1.47.051.964.355 1.623.963 2.028.71.456 1.47.608 2.332.456.862-.152 1.521-.659 2.028-1.419.304-.456.507-.912.557-1.42.051-.506 0-.962-.202-1.368-.203-.456-.406-.76-.659-1.014-.254-.203-.913-.71-1.977-1.47l.507-.76c.963.659 1.723 1.064 2.23 1.216.507.153 1.014.153 1.521-.101.507-.203.912-.557 1.216-1.064.406-.609.558-1.217.456-1.825-.101-.609-.456-1.116-1.064-1.521-.659-.406-1.318-.659-2.078-.608-.761 0-1.673.355-2.788.963l-.811-.558c1.064-1.166 1.926-1.926 2.635-2.433zM273.726 69.704l.101.305v.253c-.558.406-1.014.608-1.369.608s-.709-.101-1.064-.355a1.749 1.749 0 01-.659-.963c-.102-.354-.051-.861.101-1.52a2.84 2.84 0 01-1.825.152 4.737 4.737 0 01-1.875-.963c-.608-.457-.913-.963-1.014-1.42-.101-.456.051-.912.355-1.318.152-.202.355-.354.558-.456.253-.152.506-.203.861-.253.355-.05.811 0 1.42.101.101 0 .405.102.861.254l2.788.861c.203-.202.355-.405.558-.659.608-.76.963-1.368.963-1.774 0-.253-.101-.507-.406-.71-.304-.202-.608-.405-.912-.456a1.258 1.258 0 00-.862 0c-.202.051-.456.254-.76.558-.254.203-.406.355-.456.355-.152.05-.406 0-.71-.102-.304-.101-.507-.152-.608-.152-.406-.101-.71-.203-.913-.354 0-.153 0-.254.102-.406.253-.304.557-.558.861-.659a4.213 4.213 0 011.673-.203 5.28 5.28 0 011.673.254 7.213 7.213 0 011.977 1.216c.456.355.76.76.963 1.166.203.406.203.862.101 1.318-.152.456-.557 1.064-1.216 1.926l-1.166 1.42-.811 1.064-.203.254c-.203.253-.304.405-.304.557 0 .152.051.254.152.355.051.05.152.05.203.101l.557-.202.305-.153zm-1.217-4.207c-.406-.152-.912-.253-1.521-.355-.608-.05-1.115-.05-1.47.102a1.82 1.82 0 00-.709.557c-.203.254-.304.507-.254.76 0 .254.152.508.304.66.304.253.659.405 1.014.355.507 0 .811-.051 1.014-.153.203-.1.507-.507 1.064-1.165.203-.254.406-.507.558-.76zM284.067 73.1c.05-.354.05-.608.101-.861 1.622.253 2.788.355 3.548.203.456-.051.862-.254 1.217-.558.355-.304.507-.71.507-1.217 0-.507-.152-.861-.457-1.166-.608-.608-1.571-.81-2.889-.557l-.203-.76c.811-.305 1.42-.457 1.927-.507.506-.051 1.064.101 1.723.354.456.203.963.558 1.47 1.014.659.66 1.014 1.369 1.065 2.079.05.71-.203 1.318-.71 1.825-.406.405-.913.658-1.521.76-.608.101-1.47.05-2.534-.152l.152.152c.709.71.963 1.52.912 2.484-.101.963-.456 1.774-1.064 2.382-.507.507-1.217.963-2.028 1.318-.811.355-1.774.355-2.788.101-1.064-.253-2.027-.861-2.991-1.825-.912-.912-1.47-1.774-1.622-2.585-.101-.507 0-.912.254-1.166a1 1 0 01.709-.304c.305 0 .558.102.811.355.203.203.305.406.406.71.051.253.051.71 0 1.368-.051.355 0 .609.051.76.152.356.253.558.355.66.253.253.658.456 1.115.557.507.102 1.014.051 1.622-.202a5.568 5.568 0 001.774-1.217c.608-.608.963-1.267 1.014-1.926.05-.66-.102-1.166-.456-1.52-.457-.254-.862-.457-1.47-.559zM287.919 86.686l.507-.355c.507.557.912.76 1.166.71.253-.051 1.115-.609 2.534-1.673l1.926-1.369.203-.152c.608-.456.913-.76.913-.912 0-.152-.102-.406-.355-.862-.051-.152-.102-.253-.152-.304a.889.889 0 01.253-.203c.051-.05.152-.101.254-.203.101.152.253.304.405.507l.254.355c.101.203.253.355.405.507l.71.862.405.557c0 .152-.202.609-.557 1.369l-1.42 2.788-1.013 1.875c.253-.101.912-.304 1.926-.507a78.353 78.353 0 003.295-.81l.253-.051c.203-.051.406-.102.659-.152.152-.051.304 0 .406.152l.152.152.354.507.507.71c.152.202.355.456.71.81.203.203.304.305.304.355.051.05.051.102.102.152l-.153.102-.253.202-.152.102c-.71-.66-1.166-.913-1.419-.71l-.102.102-.304.253c-.203.152-.608.507-1.166 1.014l-1.115 1.014c-.811.71-1.47 1.267-1.926 1.723-.051.05-.102.101-.152.101-.102.102-.152.153-.152.203 0 .05.101.304.304.71l.253.608c-.304.254-.456.355-.507.355-.101-.102-.253-.355-.507-.76a59.108 59.108 0 00-1.469-2.079c-.153-.203-.457-.507-.761-.861l-.253-.254c.304-.203.456-.355.507-.355.152.102.405.254.659.507.152.152.304.254.456.254.101 0 .253-.102.456-.254l.963-.81.862-.761 2.332-2.078-4.157 1.013c-.304.051-.71.203-1.166.304l-.76.203c-.406.102-.659.152-.811.203-.304.101-.507.152-.609.152l-.405-.405 1.166-2.282c.253-.506.456-.963.608-1.216l1.115-2.078.71-1.42-2.636 1.977-.203.152-.355.254-.912.71c-.355.253-.507.506-.507.76 0 .203.051.507.254.861l.152.355-.558.406c-.152-.152-.253-.355-.355-.558-.253-.456-.608-.912-1.014-1.368-.304-.254-.608-.609-1.064-1.166zM306.978 98.8l.558-.506c.456.861.811 1.47 1.064 1.825l.305.456.456.76c.507.811.912 1.369 1.216 1.673l-.709.304-.507-.608c-.203-.304-.355-.406-.456-.406-.102 0-.659.355-1.572.913l-.608.354-.76.457c-1.977 1.267-2.991 1.977-3.092 2.179.152.406.253.761.405.963l.152.305-.557.354-.406-.659c-.406-.659-.659-1.165-.862-1.47l-1.672-2.433.557-.355.254.254c.304.355.506.608.709.76.456-.152 1.217-.659 2.383-1.368l.659-.406.963-.71c.101-.05.253-.152.507-.304-3.295-.557-5.323-.912-6.083-1.166-.304.203-.507.406-.608.609.152.405.253.76.405.963.051.101.101.203.101.304l-.506.355-.406-.659c-.406-.659-.659-1.166-.862-1.47l-1.673-2.433.558-.355c.101.05.152.152.254.253.253.305.506.558.709.76.456-.151.862-.405 1.267-.658l1.47-.963 1.369-.862.507-.304.608-.406c.558-.355.862-.557.913-.659.05-.101 0-.304-.152-.557-.051-.102-.203-.355-.355-.66l.557-.506c.457.861.811 1.47 1.065 1.825l.304.456.456.76c.507.811.913 1.369 1.217 1.673l-.71.304-.507-.608c-.203-.304-.355-.456-.456-.406-.101.051-.608.355-1.571.913l-.558.355-.659.405-1.774 1.115 2.889.507c.862.102 1.572.254 2.129.355.558.101.913.152 1.166.203.152-.102.304-.152.355-.203.253-.152.304-.456.101-.811-.253-.254-.405-.456-.507-.76zM309.31 109.445l.152.355.71 1.369.152.355.304.659c.152.253.304.608.558 1.014l1.115-.558c.912-.507 1.47-.76 1.571-.862.152-.101.102-.304-.05-.659a5.892 5.892 0 00-.305-.709l.609-.457c.405.913.709 1.521.912 1.927l.254.507.405.76c.456.862.811 1.47 1.065 1.774l-.761.253c-.253-.405-.405-.608-.456-.659-.152-.304-.304-.456-.406-.405-.101 0-.456.152-1.064.456l-1.217.608-1.723.862c-1.369.71-2.129 1.166-2.281 1.369.101.456.203.811.304 1.014.051.101.051.202.101.354l-.608.305-.557-1.166c-.153-.355-.355-.71-.507-1.065l-.811-1.368-.659-1.166.608-.304c.051.101.152.152.203.253.253.355.456.608.659.811.709-.203 1.52-.558 2.382-1.014l.558-.304c-.254-.405-.457-.811-.659-1.166-.304-.557-.507-1.014-.659-1.267l-.406-.811c-.101-.152-.203-.355-.304-.507l-.456.254-1.369.709c-.355.203-.659.406-.861.608.101.457.202.812.304 1.014.05.102.05.203.101.304l-.558.305-.557-1.166c-.152-.355-.355-.71-.507-1.065l-.811-1.368-.659-1.166.608-.304c.051.101.152.152.203.253.253.355.456.608.659.811.456-.152 1.318-.507 2.433-1.115l2.687-1.47c.811-.406 1.216-.71 1.216-.76.051-.102 0-.254-.152-.558a5.846 5.846 0 00-.304-.71l.608-.456c.406.912.71 1.521.862 1.926l.253.507.406.761c.456.861.811 1.47 1.064 1.774l-.76.253c-.253-.405-.405-.608-.456-.659-.152-.304-.304-.456-.406-.456-.101 0-.456.152-1.064.456-.659.304-1.267.608-1.673.76zM316.964 115.528c.152.203.254.406.304.558.051.101.051.152.102.253.203.609.405 1.116.557 1.521l.203.507.71 1.369c0 .05-.051.152-.051.202-.304.102-.507.152-.608.203-.051-.101-.102-.152-.152-.203-.102-.152-.152-.253-.203-.304-.051-.05-.101-.152-.152-.203-.051-.101-.152-.101-.203-.101-.152.101-.253.203-.355.304l-.76.913c-.76.76-1.47 1.52-2.078 2.281l-.913 1.064c.102 0 .862 0 2.332-.051 1.723-.05 2.687-.101 2.889-.152.102 0 .203-.05.254-.05.05-.051.152-.102.304-.203.051-.203.051-.355.051-.456 0-.102-.051-.355-.152-.71l-.051-.355.101-.101c.051-.051.102-.051.152-.051.051 0 .152-.051.254-.101.101.203.152.355.203.405l.304.811.202.558c.102.203.305.608.609 1.166.202.355.304.608.405.76-.152.102-.304.152-.355.203-.05 0-.101.051-.202.051a2.239 2.239 0 01-.305-.355 5.36 5.36 0 00-.456-.558c-.101-.05-.202-.101-.304-.101h-1.977l-2.23.101h-4.714l-3.143-.05a6.566 6.566 0 01-1.724-.355 1.055 1.055 0 01-.506-.304c-.203-.254-.406-.507-.558-.862 0-.051-.051-.254-.152-.608-.051-.305 0-.609.152-.913.101-.203.253-.355.405-.405.355-.152.761-.152 1.217.05.304.203.456.355.507.507.152.304.101.71 0 1.267-.051.254-.101.457-.051.558.051.101.152.152.304.203 1.369.101 2.332.152 2.89.101l3.295-3.599c1.368-1.419 2.281-2.433 2.788-3.041.253-.355.405-.558.405-.659.051-.102.051-.254 0-.406v-.355l.456-.304zM319.144 126.427h.912c.457 0 1.014-.051 1.623-.051h.354l.152.456c-.05.051-.05.102-.101.102-.253.253-.355.456-.355.506 0 .051.102.457.355 1.065l.76 2.129.254.811.811 2.382.101.203c.051.102.102.203.152.254.051.05.203.05.406.05l.203.051c.05.152.101.304.202.558l-1.622.557-.709.254c-.406.152-.659.202-.761.202-.152-.202-.253-.354-.304-.557l.761-.761c.304-.304.506-.506.557-.608.051-.101-.051-.405-.203-.912l-.202-.558c-.051-.203-.153-.405-.203-.659l-.862.304-1.115.355-1.825.608c-1.723.609-2.686.964-2.839 1.116.051.456.102.811.153 1.013 0 .102.05.254.05.355l-.608.203-.355-1.267c-.101-.406-.253-.761-.355-1.115l-.557-1.521-.507-1.267.659-.203c.05.101.101.152.152.304.203.355.355.659.507.912.557-.05 1.318-.253 2.23-.608l2.23-.811c1.116-.405 1.825-.659 2.18-.811-.101-.304-.152-.558-.253-.76-.203-.609-.406-.963-.558-1.115-.152-.153-.507-.305-1.115-.507l-.304-.102c-.203-.05-.304-.152-.355-.203.152.051.203-.101.304-.354zM322.236 140.67l.304 1.166.102.406c.456 1.774.506 2.99.253 3.7s-.76 1.166-1.521 1.318c-.861.203-1.622 0-2.281-.608-.659-.609-1.115-1.572-1.419-2.839l-.304-1.419-1.166-4.258.659-.152.253.659c.102.253.203.456.304.608.203.051 1.166-.102 2.89-.558l1.774-.456 1.267-.355c.608-.152.963-.253 1.065-.304.101-.051.101-.253 0-.608l-.102-.811.558-.254.304 1.318.101.406c.102.304.203.709.355 1.267l.304 1.217.203.76c.051.152.102.355.254.659l-.761.051c-.152-.457-.253-.71-.304-.811-.101-.406-.203-.659-.304-.71-.101-.051-.355-.051-.76.051l-1.014.253-.558.152-.456.152zm-4.055 1.065c0 .253.05.659.152 1.165.405 1.623 1.166 2.282 2.332 1.977.506-.101.861-.405 1.064-.912.203-.507.254-1.115.051-1.926-.102-.355-.203-.71-.355-1.115-.101 0-.152 0-.152.05l-.659.152-2.129.457c-.152 0-.203.05-.304.152zm8.617 4.562l.71-.304c.152.963.304 1.622.405 2.078l.152.557.203.862c.254.963.406 1.622.608 1.977l-.76.051-.253-.761c-.102-.304-.152-.506-.254-.506-.101 0-.456.05-1.115.202l-1.267.254-1.825.405c-1.724.406-2.636.71-2.839.862 0 .456 0 .811.051 1.064v.355l-.608.152-.152-.76c-.153-.76-.254-1.318-.355-1.673l-.811-2.838.608-.152.152.304c.152.405.304.709.456.963.406 0 1.267-.203 2.636-.558l1.419-.355 1.166-.253a52.967 52.967 0 001.673-.456c.152-.051.203-.304.101-.659 0-.152-.05-.456-.101-.811zM332.729 178.688c0 .862-.304 1.622-.913 2.23-.608.608-1.317.913-2.23.913a3.061 3.061 0 01-2.23-.913c-.609-.608-.913-1.318-.913-2.18 0-.861.304-1.622.913-2.23a3.029 3.029 0 012.179-.912c.862 0 1.623.304 2.231.912.659.608.963 1.318.963 2.18zM330.549 221.571c-.253.051-.862.102-1.977.152-.507 0-.963-.05-1.47-.152l.254-.963c1.115-.456 1.977-.963 2.585-1.622.608-.608 1.014-1.368 1.217-2.281.253-1.115.05-2.078-.659-2.94-.964-1.216-2.434-2.027-4.512-2.534-1.216-.304-2.078-.406-2.636-.355-.912.05-1.622.203-2.281.507a3.1 3.1 0 00-1.216.963c-.457.557-.811 1.166-.964 1.875-.202.761-.101 1.572.203 2.433.304.862.862 1.724 1.673 2.586 0 .253-.051.608-.152 1.064a9.918 9.918 0 01-.811-.355c-.101-.05-.558-.253-1.267-.557l-.304-.152-.457-.254c-.253-.507-.355-1.166-.304-2.027 0-.811.152-1.825.456-2.94.203-.862.507-1.673.811-2.434.305-.76.761-1.317 1.268-1.824a7.912 7.912 0 012.129-1.521c.709-.304 1.419-.507 2.179-.558.761-.05 1.572 0 2.433.203 2.129.507 3.701 1.622 4.715 3.346 1.013 1.723 1.318 3.649.811 5.829a27.96 27.96 0 01-.71 2.433c-.355.76-.659 1.419-1.014 2.078zM316.052 221.571l.608.254c-.203.709-.152 1.166.051 1.368.203.203 1.115.609 2.737 1.268l2.18.912.253.101c.71.254 1.166.355 1.267.305.102-.051.305-.305.558-.761.101-.152.152-.253.203-.304.101 0 .203.051.304.101.051 0 .152.051.304.102-.051.152-.101.405-.203.608l-.152.406c-.101.202-.152.405-.253.608l-.355 1.064-.253.609c-.153.101-.609.152-1.47.253l-3.093.304-2.129.152c.254.152.71.609 1.47 1.369a55.299 55.299 0 002.484 2.332l.152.152.457.456c.101.101.152.253.101.405l-.051.203-.203.558-.304.811c-.101.203-.152.557-.304 1.014-.05.253-.101.405-.152.456 0 .051-.051.101-.051.152l-.152-.051-.304-.101-.152-.051c.203-.963.152-1.47-.152-1.571-.051 0-.101-.051-.152-.051l-.405-.152c-.254-.101-.761-.253-1.47-.456l-1.42-.406a62.555 62.555 0 00-2.484-.709c-.101 0-.152-.051-.152-.051-.152-.051-.202-.051-.253 0-.051.051-.203.253-.456.608l-.406.558c-.355-.152-.557-.203-.608-.203.051-.101.152-.405.405-.862.304-.659.659-1.47.963-2.382.102-.254.203-.659.355-1.115l.102-.355c.355.152.557.203.608.253 0 .203 0 .457-.051.811-.05.254-.05.406.051.507a.974.974 0 00.456.254l1.166.405 1.065.355 3.041.862-3.092-2.991c-.254-.203-.507-.507-.862-.811l-.608-.558a8.576 8.576 0 01-.608-.557 5.318 5.318 0 01-.457-.406l.102-.557 2.534-.254a26.71 26.71 0 001.369-.152l2.332-.152 1.571-.152-3.092-1.166-.254-.101-.405-.152-1.115-.406c-.406-.152-.71-.152-.913-.05-.202.101-.405.354-.608.659l-.203.304-.659-.254c.051-.202.152-.405.254-.608.203-.456.456-1.014.659-1.571-.051-.305.101-.761.304-1.42zM314.024 247.677c-.608.203-1.216.305-1.875.254a5.07 5.07 0 01-1.622-.406c-.862-.405-1.521-.912-1.927-1.419-.608-.811-.963-1.622-1.013-2.534-.051-.862.152-1.775.557-2.687.507-1.014 1.115-1.774 1.926-2.281.811-.507 1.572-.76 2.281-.76.71-.051 1.521.152 2.383.557.456.203.862.507 1.216.862.355.355.659.76.862 1.166.203.405.355.811.406 1.216.101.609.101 1.166.05 1.673a7.445 7.445 0 01-.557 1.724c-.609 1.368-1.521 2.281-2.687 2.635zm-.862-6.995a20.96 20.96 0 00-1.47-.557 6.52 6.52 0 00-1.318-.152 2.39 2.39 0 00-.861.354 1.865 1.865 0 00-.71.913c-.253.456-.253.963-.101 1.419.152.456.507.963 1.115 1.419.405.305 1.064.659 2.027 1.166 1.217.558 2.129.761 2.839.609.71-.152 1.166-.558 1.47-1.217.254-.507.304-1.014.152-1.47-.101-.456-.456-.912-.912-1.318-.304-.203-1.065-.608-2.231-1.166zM310.882 250.769c.05.102.152.254.304.406l.253.304c.304.355.71.76 1.115 1.216l.254.254-.254.456h-.152c-.355 0-.557 0-.608.051-.051.05-.253.355-.608.963l-1.115 1.977-.457.76-1.267 2.18-.101.203c-.051.101-.102.202-.051.304.051.101.101.202.203.355l.101.202c-.051.102-.152.304-.304.558l-1.47-.862-.659-.355c-.406-.253-.608-.354-.659-.456.051-.253.101-.456.203-.608.203 0 .557 0 1.064.101.456.051.71.051.811 0 .102-.05.304-.304.558-.76l.304-.507c.101-.203.253-.355.406-.608l-.811-.457-1.014-.608-1.622-1.014c-1.572-.912-2.484-1.419-2.687-1.419-.304.355-.558.608-.71.76a.608.608 0 01-.253.254l-.558-.304.71-1.065c.203-.355.406-.659.608-.963l.761-1.419.659-1.166.557.355c0 .101-.05.203-.101.304-.152.355-.254.71-.355 1.014.456.405 1.065.811 1.876 1.318l2.078 1.166c1.014.608 1.673.963 2.027 1.115.203-.254.305-.507.406-.659.304-.558.507-.963.507-1.115 0-.153-.102-.609-.304-1.166l-.102-.304c-.101-.203-.101-.355-.05-.406.101-.203.253-.304.507-.355zM294.914 254.014l.406.304c0 .152 0 .253-.051.304l-.254.912c-.101.355-.101.609-.101.659.101.203.406.507.862.811l3.599 2.484 4.46 3.042c.355.202.609.304.812.304.202 0 .608-.254 1.115-.659l.456.304c-.304.659-.507 1.267-.608 1.774-.102.355-.152.912-.152 1.673l-.305.456-.253-.152-.963-.71c-.051 0-.102-.101-.254-.203-.05.761-.152 1.318-.304 1.724-.202.608-.507 1.166-.912 1.774-.456.608-.963 1.014-1.622 1.267-.051 0-.102.051-.203.102-.406.152-.76.202-1.064.202a6.15 6.15 0 01-1.724-.253c-.405-.101-.811-.355-1.267-.659-.608-.456-1.065-.912-1.369-1.369-.304-.456-.557-1.064-.709-1.774-.153-.709-.153-1.318 0-1.926.152-.558.354-1.115.709-1.622.355-.507.608-.811.811-.963.406-.304.862-.608 1.369-.811l-.152-.152-.254-.152a1.063 1.063 0 00-.253-.152c-.051-.051-.254-.203-.71-.507l-1.622-1.115c-.051-.051-.152-.102-.355-.254l-.101-.051c-.203-.152-.406-.253-.507-.304h-.304a.384.384 0 01-.203.102 3.253 3.253 0 01-.456.405c-.152.102-.254.254-.406.355-.101 0-.202-.051-.304-.101-.05-.051-.152-.102-.253-.203l.101-.152c.254-.355.406-.558.558-.71l1.064-1.267.254-.304.253-.304.203-.355.304-.507c.101-.203.254-.406.355-.608.152-.254.203-.406.304-.507v-.152zm3.954 7.907c-.102-.05-.152-.05-.203-.05-.304-.152-.557-.203-.76-.152-.355.05-.659.152-.862.304a6.04 6.04 0 00-.811.811 3.366 3.366 0 00-.456 1.064c-.102.406-.051.761 0 1.065 0 .05.05.101.05.202.051.102.102.203.153.254a4.647 4.647 0 001.216 1.419c.963.71 1.977.963 3.041.862.761-.051 1.369-.456 1.927-1.217a4.898 4.898 0 00.709-1.723c-.202-.152-.861-.659-1.926-1.419l-1.723-1.217c-.051.051-.203-.051-.355-.203zM292.836 279.206l.659.405a17.92 17.92 0 00-1.47 1.521l-.355.456-.608.659c-.659.76-1.065 1.267-1.268 1.622l-.456-.608.456-.659c.254-.253.305-.456.254-.558-.051-.101-.507-.507-1.318-1.267l-.507-.507-.659-.608c-1.774-1.571-2.737-2.332-2.94-2.332-.355.254-.659.456-.811.659-.101.051-.152.152-.253.203l-.507-.406.507-.557c.557-.558.912-.963 1.165-1.267l1.876-2.281.456.456-.152.304a4.36 4.36 0 00-.507.912c.304.355.963 1.014 1.977 1.927l.608.506.913.761c.101.05.203.203.405.405-.405-3.295-.557-5.373-.557-6.184-.304-.203-.558-.355-.761-.405a6.389 6.389 0 00-.811.659c-.101.05-.152.152-.253.202l-.507-.405.507-.558c.558-.557.963-.963 1.166-1.267l1.875-2.281.457.456-.153.304a4.282 4.282 0 00-.506.913c.304.354.608.709 1.013 1.064l1.318 1.166 1.217 1.065.456.405.558.456c.507.406.811.659.912.71.102.051.254-.051.507-.304.101-.102.253-.304.558-.558l.659.406c-.659.659-1.166 1.166-1.47 1.52l-.355.457-.609.659c-.659.76-1.064 1.267-1.267 1.622l-.456-.609.456-.659c.254-.253.304-.456.254-.557-.051-.102-.507-.507-1.318-1.217l-.456-.456-.558-.558-1.571-1.368.354 2.94c.102.862.203 1.571.254 2.129.05.557.101.963.152 1.166.152.152.253.253.304.253.253.203.507.152.811-.152-.051-.405.152-.557.355-.76zM286.398 283.869c.051.102.102.254.203.457l.152.354c.203.457.456.913.76 1.47l.152.305-.354.354c-.051 0-.102-.05-.153-.05-.354-.102-.557-.152-.608-.152-.051.05-.355.304-.862.76l-1.622 1.571-.608.609-1.825 1.774s-.05.101-.152.203c-.101.101-.152.202-.152.253 0 .051.051.203.102.406l.05.202a4.008 4.008 0 01-.456.406l-1.166-1.217-.507-.507c-.304-.304-.507-.507-.507-.608.102-.203.254-.405.355-.507a4.04 4.04 0 011.014.406c.405.152.659.253.76.253.102 0 .355-.203.71-.557l.405-.406c.153-.152.305-.304.507-.456l-.659-.659-.811-.862-1.318-1.419c-1.267-1.318-1.977-2.028-2.23-2.079-.405.254-.71.406-.912.558-.102.051-.203.152-.305.203l-.456-.456.963-.862c.305-.254.609-.507.862-.76l1.115-1.166.963-.963.457.506a.891.891 0 01-.203.254 6.778 6.778 0 00-.608.862c.304.507.811 1.064 1.47 1.774l1.672 1.673c.811.861 1.369 1.419 1.673 1.672.254-.202.456-.405.558-.507.456-.456.76-.76.811-.963.05-.202.05-.608 0-1.216v-.304c0-.203 0-.355.05-.406.254-.152.457-.203.71-.203zM276.412 292.081c.254.608.355 1.014.406 1.267.05.71 0 1.369-.152 1.927a5.388 5.388 0 01-.558 1.317 8.97 8.97 0 01-.76.913c-.558.405-1.014.76-1.369.912-.405.203-.76.304-1.115.304-.507.051-.912 0-1.318-.05a3.31 3.31 0 01-1.115-.406 3.776 3.776 0 01-1.115-.963l.963-.76c.253-.203.861-.659 1.774-1.318.355-.254.608-.406.71-.507.05-.051.354-.304.912-.76l.71-.609c-.051-.101-.102-.152-.152-.202a6.882 6.882 0 00-.862-.862 5.67 5.67 0 00-1.065-.608 2.626 2.626 0 00-1.064-.203c-.355 0-.71.051-1.014.152l-.608.253c-.456.355-.71.609-.862.761a7.59 7.59 0 00-.558.811c-.152.253-.253.608-.405 1.064h-.811c.051-.963.253-1.774.608-2.433.355-.659.862-1.267 1.521-1.825.456-.355.862-.608 1.216-.76a4.505 4.505 0 011.42-.355 3.4 3.4 0 011.419.152c.456.152.912.304 1.267.558.507.304.862.608 1.065.861.355.406.709.913.912 1.369zm-4.613 4.359c.254.305.558.558.913.761.355.203.71.253 1.115.253.406-.05.71-.152.963-.355.355-.304.608-.76.608-1.318 0-.557-.152-1.165-.557-1.774l-1.977 1.572c-.101.101-.304.253-.507.456-.152.152-.253.253-.355.304-.051-.051-.101 0-.203.101zM252.233 312.611l-.253-.71c.355-.304.608-.456.659-.456.253-.152.405-.355.405-.456 0-.152-.253-.609-.76-1.47l-.507-.811-.558-.812-.659-1.115a7.578 7.578 0 00-.507-.861c-.253-.457-.506-.811-.76-1.014-.456.152-.76.253-1.014.355-.101.05-.202.101-.304.101l-.355-.558 1.166-.608c.355-.203.71-.405 1.014-.557l1.318-.862 1.166-.71.355.558c-.051.101-.152.152-.254.253-.304.254-.557.507-.76.71.304.811 1.014 2.18 2.18 4.055l1.419 2.23c.405-.253.76-.506 1.216-.76.507-.304.913-.507 1.166-.659l.811-.456c.152-.102.304-.203.507-.355l-.557-.963-2.535-4.309a4.202 4.202 0 00-.659-.861c-.456.152-.76.253-1.014.354-.101.051-.202.102-.304.102l-.355-.558 1.166-.608c.355-.203.71-.406 1.014-.558l1.318-.861 1.166-.71.355.558c-.051.101-.152.152-.254.253-.304.253-.557.507-.76.71.203.506.558 1.267 1.115 2.179l1.166 1.825.71 1.166c.354.558.557.912.659.963.101.051.304 0 .557-.152.152-.101.355-.203.71-.355l.507.608-1.267.659-.609.305-.608.405c-.152.101-.355.203-.608.355l-2.129 1.217-2.839 1.774-.76.456c-1.014.355-1.572.76-1.876 1.014zM243.819 300.698l.202.456c-.101.153-.152.203-.202.254l-.609.659c-.253.253-.405.456-.405.557 0 .254.101.609.355 1.116l1.926 3.903 2.382 4.866c.203.355.406.558.608.659.203.101.609.101 1.268 0l.253.507c-.608.405-1.064.862-1.419 1.216-.254.305-.558.761-.963 1.369l-.507.254-.152-.254-.507-1.064c0-.051-.051-.152-.152-.305-.406.609-.761 1.065-1.065 1.369-.456.406-1.013.76-1.672 1.065a4.103 4.103 0 01-2.028.354c-.051 0-.101 0-.203-.05-.456-.102-.811-.203-1.064-.355-.558-.304-1.014-.659-1.369-1.065-.253-.304-.507-.709-.76-1.216-.304-.71-.507-1.318-.558-1.876-.05-.557.051-1.166.254-1.875.202-.71.507-1.267.912-1.673a4.192 4.192 0 011.419-1.064c.558-.254.963-.406 1.217-.457.507-.101 1.014-.101 1.571-.05-.05-.102-.05-.203-.05-.254l-.152-.253a1.105 1.105 0 01-.153-.254c0-.05-.152-.304-.354-.811l-.913-1.774c0-.051-.05-.152-.152-.405l-.051-.102c-.101-.253-.202-.405-.304-.507-.05-.05-.152-.101-.253-.152h-.254l-.608.152a7.837 7.837 0 01-.557.152c-.102-.05-.152-.101-.203-.253-.051-.051-.102-.203-.152-.304l.203-.102c.405-.202.658-.304.811-.354l1.571-.558.355-.152.355-.152.354-.203.507-.304c.203-.101.406-.203.609-.355.202-.152.405-.253.506-.304l.153-.051zm-.406 8.82l-.152-.152c-.203-.253-.406-.456-.558-.507a1.466 1.466 0 00-.912-.152c-.456.051-.811.203-1.115.304a2.484 2.484 0 00-.913.71 2.538 2.538 0 00-.507.963c0 .051-.05.102-.05.203v.304c0 .659.101 1.267.405 1.825.507 1.064 1.268 1.825 2.231 2.23.709.304 1.419.254 2.23-.101.507-.203.963-.608 1.47-1.166-.101-.253-.456-1.014-1.014-2.18l-.912-1.875c-.051-.051-.102-.203-.203-.406zM234.796 317.275c.051.659 0 1.115-.051 1.317-.203.71-.405 1.268-.76 1.775a5.131 5.131 0 01-.963 1.064c-.406.304-.761.507-1.014.608a6.264 6.264 0 01-1.622.406c-.456.051-.811.051-1.166-.051-.456-.101-.912-.304-1.217-.456a3.329 3.329 0 01-.912-.76c-.304-.304-.507-.71-.71-1.268l1.166-.405c.304-.101 1.014-.355 2.129-.659.406-.101.71-.203.862-.254.051 0 .405-.152 1.115-.405l.862-.304c0-.102-.051-.203-.051-.254-.152-.354-.304-.709-.557-1.115-.254-.355-.507-.659-.812-.912-.304-.254-.608-.406-.963-.558-.354-.101-.659-.203-1.013-.152h-.659c-.507.203-.862.355-1.014.456-.304.203-.558.406-.761.558a7.2 7.2 0 00-.709.862c-.304-.102-.558-.152-.811-.254.355-.862.811-1.571 1.368-2.129a4.84 4.84 0 012.028-1.216 6.843 6.843 0 011.369-.355c.507-.051.963 0 1.47.101a3.46 3.46 0 011.318.609c.405.304.76.608 1.013.963.355.456.609.861.71 1.165.152.558.304 1.116.355 1.623zm-5.779 2.585a3.4 3.4 0 00.608 1.014c.254.304.609.506.964.557.354.101.709.051 1.013-.051.457-.152.811-.506 1.014-1.064a2.644 2.644 0 000-1.876l-2.332.862c-.152.051-.354.152-.608.254l-.405.202a.387.387 0 01-.254.102zM211.326 315.804c.152-.05.254-.101.305-.101l.101-.051c.152.152.304.355.507.558.557.76 1.064 1.217 1.47 1.369.405.152 1.115.101 2.078-.203l1.47-.406 2.281-.557c.558-.152.913-.304 1.065-.406.152-.101.253-.304.355-.557.101-.254.152-.761.202-1.521 0-.456.051-.71.051-.76.051 0 .101-.051.152-.051.152-.051.203-.101.254-.101.05 0 .101 0 .202-.051.051.456.102.811.152 1.115.203 1.064.304 1.825.254 2.23-.051.051-.152.102-.304.152-.203.051-.355.153-.558.254-.304 1.419-.558 3.599-.862 6.59l-.152 1.571-.101.912-.862.254c-.152-.203-1.115-1.369-2.94-3.498-1.825-2.129-2.839-3.295-2.991-3.447-.202-.152-.456-.202-.76-.253-.203 0-.355-.102-.405-.203-.102-.101-.254-.557-.457-1.318l-.507-1.521zm4.816 2.434c.253.354.507.76.862 1.165l1.368 1.927c.761 1.115 1.217 1.723 1.369 1.875l.608-6.184c-.912.203-1.774.406-2.686.608-.457.203-1.014.406-1.521.609zM200.428 320.468l.253-.051 1.47-.253.761-.152.811-.152.557-.152 1.116-.203c.05.101.101.203.101.304v.405l-.456.153c-.507.152-.71.304-.71.506 0 .102.101.254.203.406.101.101.253.355.456.71.203.354.608.963 1.166 1.774l.405.608c.305.507.609.963.913 1.318.051-.253.101-.659.203-1.267.05-.507.202-1.267.405-2.231.203-1.216.304-1.977.254-2.382-.203 0-.457 0-.761.051h-.152c-.101 0-.253.05-.456.05h-.152c-.051-.101-.051-.253-.101-.354-.051-.203-.051-.355 0-.406l.202-.051c.102-.05.152-.05.203-.05l.912-.152.558-.102c.304 0 .659-.051 1.014-.152l.456-.101.456-.102.254-.05c.05.101.05.253.101.304 0 .101.051.203.051.304-.71.304-1.166.558-1.42.76-.101.254-.202.761-.304 1.47-.253 1.42-.608 3.092-1.064 5.12-.152.558-.203 1.014-.304 1.318-.051.253-.102.507-.152.71l-.862.152a103.346 103.346 0 00-3.194-4.613l-1.47-2.18-.456-.659s-.203-.05-.557-.05c-.305 0-.507-.051-.558-.153-.051-.05-.051-.152-.051-.304-.101.102-.101 0-.101-.101zM190.544 329.592a4.061 4.061 0 01-1.166-1.47c-.254-.558-.456-1.115-.507-1.622-.102-.963 0-1.775.203-2.383.354-.963.912-1.673 1.622-2.179.709-.507 1.571-.811 2.585-.913 1.115-.101 2.129.051 2.94.507.811.456 1.47.963 1.875 1.571.406.609.659 1.42.71 2.383.051.507 0 .963-.101 1.47a3.474 3.474 0 01-.558 1.318 5.51 5.51 0 01-.811 1.014c-.456.405-.912.709-1.419.861-.507.152-1.065.304-1.774.406-1.42.203-2.687-.152-3.599-.963zm5.575-4.309c-.152-.912-.253-1.419-.304-1.521-.152-.456-.304-.861-.557-1.216-.152-.203-.406-.406-.761-.558-.354-.152-.709-.203-1.165-.152-.507.051-.964.254-1.268.608-.355.355-.557.913-.608 1.673-.051.507-.051 1.267.051 2.332.101 1.318.456 2.23.912 2.737.507.507 1.065.71 1.774.659.558-.051 1.014-.253 1.318-.608.355-.355.558-.811.659-1.47.102-.355.051-1.217-.051-2.484zM178.631 326.246c.558 0 .913-.101 1.217-.304.253-.202.76-.709 1.419-1.571l1.065-1.369c.405-.507.659-.811.76-.963.76.051 1.318.102 1.673.102.405 0 .811 0 1.166-.051l.557-.051v.254l-.05.355c-.558.152-.963.304-1.217.456-.253.152-.608.557-1.115 1.166-.963 1.267-1.673 2.027-2.078 2.382a2.888 2.888 0 01-1.217.659c.152.152.456.507.811.963.76.963 1.318 1.47 1.724 1.47.152 0 .354-.101.557-.355.304-.355.608-.507.963-.507s.609.102.761.304c.202.203.253.457.253.761 0 .355-.152.659-.456.912-.304.254-.71.406-1.217.355-1.064 0-2.179-.811-3.244-2.382-.507-.761-.912-1.268-1.216-1.521-.305-.254-.71-.456-1.217-.608l-.051 2.078c0 .507 0 .811.051.963.051.101.253.203.558.203.152 0 .405.05.76.101l.152.761c-.963-.102-1.673-.153-2.078-.153h-.558l-.862-.05c-.963 0-1.672 0-2.078.05l.152-.76.811-.051c.304 0 .456 0 .507-.101.051-.101.101-.253.152-.558 0-.05 0-.152.051-.354.051-.558.101-.913.101-1.116v-1.064a4.27 4.27 0 00-1.267.558c-.304.253-.71.709-1.267 1.47-1.166 1.52-2.281 2.281-3.346 2.281-.507 0-.912-.152-1.166-.406a1.385 1.385 0 01-.405-.963c0-.253.101-.507.304-.71.203-.202.456-.304.76-.304.355 0 .659.203.963.558.203.253.355.355.507.355.254 0 .507-.102.761-.305.253-.202.608-.557 1.064-1.115.406-.456.659-.76.862-.963-.456-.152-.912-.456-1.267-.811-.406-.355-1.014-1.166-1.927-2.382-.506-.659-.811-1.065-1.064-1.217-.203-.152-.608-.304-1.217-.507v-.355-.253c.102 0 .254 0 .558.051.355.05.76.05 1.166.101.456 0 1.014 0 1.723-.051.102.152.355.507.71 1.014l1.014 1.419c.608.913 1.064 1.42 1.368 1.673.254.203.71.304 1.268.304l.05-2.483v-.761c-.202-.152-.507-.253-1.013-.355-.102 0-.203-.05-.254-.05v-.456-.153l.101-.05 1.166.05c.507.051 1.014.051 1.47.102.254 0 .761 0 1.521-.051h.912c.051.102.051.254.051.355v.304a.947.947 0 01-.405.102c-.152 0-.254.05-.254.05l-.405.051c-.152 0-.254.051-.304.051-.102.101-.153.861-.153 2.331l-.152 1.115zM165.756 327.108a5.12 5.12 0 01-.659 1.166c-.456.557-.963.963-1.47 1.216-.507.254-.963.456-1.318.507-.507.102-.912.102-1.166.051-.659-.102-1.216-.203-1.622-.355a3.805 3.805 0 01-1.014-.558c-.354-.354-.659-.659-.861-.963-.203-.304-.355-.709-.457-1.115a3.486 3.486 0 01-.05-1.47l1.216.152c.355.051 1.065.152 2.18.355.406.101.71.152.862.152.05 0 .456.051 1.166.101l.912.102c.051-.102.051-.203.051-.254.05-.405.05-.811 0-1.216a3.943 3.943 0 00-.304-1.166 2.876 2.876 0 00-.609-.912 3.077 3.077 0 00-.811-.609l-.608-.304c-.558-.051-.912-.101-1.115-.101-.355.05-.659.101-.963.152-.254.101-.609.203-1.014.456a3.417 3.417 0 01-.608-.608c.709-.609 1.47-1.065 2.179-1.268.71-.202 1.521-.304 2.332-.202.558.05 1.014.202 1.369.304a4.95 4.95 0 011.216.76c.355.304.659.71.862 1.115.253.457.405.862.456 1.318.102.558.152 1.014.102 1.369.05.76-.051 1.318-.254 1.825zm-6.336-.355c-.051.406 0 .811.101 1.217.102.405.304.709.608.963.305.253.609.405.913.456.507.051.963-.102 1.369-.456.456-.355.76-.913.861-1.673l-2.484-.355c-.152 0-.405-.051-.659-.051-.202 0-.354 0-.456-.05-.05 0-.152 0-.253-.051zM150.346 323.762l-.405-.101-1.47-.355-.406-.101-.709-.203c-.304-.051-.659-.152-1.166-.253l-.304 1.216c-.254 1.014-.355 1.622-.406 1.774 0 .152.152.304.558.406.152.05.405.101.76.253l-.051.761c-.912-.305-1.622-.457-2.027-.558l-.558-.101-.861-.203c-.964-.203-1.623-.355-2.028-.406l.304-.709c.456.05.71.101.811.101.304.051.507.051.608 0 .051-.101.152-.456.355-1.115l.355-1.318.507-1.876c.355-1.52.507-2.382.456-2.635a14.064 14.064 0 00-.963-.457l-.304-.152.152-.659 1.267.355c.406.101.761.203 1.115.304l1.572.304 1.318.254-.152.659h-.355c-.406-.051-.76-.051-1.065-.051-.304.71-.557 1.521-.76 2.433l-.101.609c.456.101.912.202 1.318.304.608.152 1.064.253 1.368.354l.913.254c.202.051.405.101.608.101l.101-.557.355-1.521c.102-.405.102-.76.102-1.064-.406-.203-.71-.355-.964-.457l-.304-.152.152-.659 1.268.355c.405.101.76.203 1.115.304l1.571.304 1.318.254-.152.659h-.355c-.405-.051-.76-.051-1.064-.051-.203.456-.457 1.318-.761 2.585l-.659 2.991c-.202.862-.253 1.369-.202 1.47.05.101.202.152.507.253.152.051.405.102.76.254l-.051.76c-.912-.304-1.622-.456-2.027-.557l-.558-.102-.862-.202c-.963-.203-1.622-.355-2.027-.406l.304-.71c.456.051.709.102.811.102.355.05.557.05.608 0 .051-.051.152-.456.355-1.115.101-.862.304-1.521.405-1.927zM132.351 322.445l-.101.76c-.912-.355-1.521-.608-1.977-.76l-.557-.153-.811-.304c-.913-.304-1.623-.507-2.028-.557l.355-.659.76.152c.355.101.507.101.608 0 .102-.102.254-.659.609-1.724l.253-.659.304-.861c.71-2.231 1.065-3.447 1.014-3.599a4.269 4.269 0 00-.912-.507l-.304-.152.202-.609.71.254c.71.304 1.267.456 1.622.608l2.839.811-.203.609c-.102 0-.203 0-.355-.051-.405-.102-.76-.102-1.014-.152-.203.405-.557 1.267-.963 2.585l-.253.76-.304 1.166c-.051.102-.102.304-.203.558 2.889-1.673 4.714-2.636 5.474-2.94.102-.355.102-.609.102-.862a4.293 4.293 0 00-.913-.507l-.304-.152.203-.608.71.253c.709.304 1.267.507 1.622.608l2.838.812-.203.608c-.101 0-.202 0-.354-.051-.406-.101-.761-.101-1.014-.152-.203.406-.406.862-.558 1.318l-.557 1.673-.507 1.52-.152.558-.203.659c-.203.608-.304.963-.253 1.115 0 .102.152.203.506.355.152.051.355.152.71.304l-.101.76c-.913-.354-1.572-.608-1.977-.76l-.558-.152-.811-.304c-.912-.304-1.622-.507-1.977-.558l.355-.659.76.152c.355.102.558.102.609 0 .05-.101.253-.659.608-1.723l.253-.608.254-.761.659-1.977-2.535 1.47c-.76.457-1.368.812-1.875 1.065a6.435 6.435 0 00-1.014.608c-.051.203-.101.304-.152.355-.101.304.051.507.456.659.102.152.355.253.608.406zM118.158 308.403c.051-.101.051-.202.102-.253.05-.051.101-.152.152-.254.456.203.861.406 1.267.609l.253.152.558.304.659.355 1.673.557.253.102.203.101c0 .051-.051.152-.051.254-.05.101-.05.202-.101.304-.102 0-.304-.051-.507-.102-.507-.101-.862-.152-.963-.101-.102.203-.254.558-.456.963-.152.254-.457.913-.862 1.926l.405.203c.305.152.609.152.913.101.304-.05.71-.304 1.216-.76l1.572-1.267c.355-.355.659-.558.811-.659l.912.456c.71.304 1.115.507 1.318.558l.659.202.304.153c-.05.101-.05.152-.101.202-.051.102-.101.203-.152.254-.507-.152-.862-.203-1.166-.102-.304.102-.71.304-1.217.761-.912.659-1.571 1.115-1.976 1.267-.406.152-.812.203-1.217.152.76.507 1.318 1.014 1.571 1.47.254.456.305.963.051 1.47-.253.659-.811 1.014-1.521 1.166-.76.152-1.672 0-2.788-.507l-1.267-.608-1.419-.659c-.456-.203-.811-.406-1.166-.558-.406-.152-.71-.355-1.014-.507v-.101l.203-.456c.101 0 .253.05.456.152l.152.05.102.051.253.051c.051 0 .152.05.203.05.05-.101.101-.152.101-.202l.102-.254.101-.202.203-.457.304-.608 1.166-2.889.355-.761c.253-.557.405-1.013.456-1.267-.152-.152-.304-.355-.558-.507-.253-.152-.405-.253-.507-.355zm1.673 5.728l-.253.659-.102.304-.811 1.977c.102.102.304.152.507.254.71.304 1.267.355 1.724.203.456-.203.76-.457.963-.913.405-.912-.102-1.673-1.47-2.281l-.558-.203zM101.431 314.486c-1.622-.405-2.991-.963-4.157-1.673-1.166-.76-2.028-1.622-2.585-2.635-.558-1.014-.507-1.977.05-2.89.305-.507.76-.862 1.319-1.166.557-.304 1.52-.304 2.787-.05-.81-.761-1.317-1.622-1.52-2.535-.203-.912-.05-1.774.456-2.636.659-1.115 1.723-1.672 3.092-1.774 1.369-.101 3.041.507 4.968 1.673 1.419.862 2.382 1.723 2.889 2.484.507.76.558 1.419.253 1.926-.202.355-.506.558-.912.659-.406.101-.811 0-1.217-.254-.304-.202-.557-.456-.659-.709-.152-.304-.253-.761-.304-1.47-.101-.963-.456-1.622-1.013-1.977-.71-.456-1.521-.558-2.332-.355-.811.203-1.47.71-1.977 1.47a3.216 3.216 0 00-.507 1.419c-.051.507.051.963.253 1.369.203.456.457.76.71.963.254.203.963.71 2.028 1.419l-.456.761c-1.014-.608-1.775-1.014-2.282-1.166-.506-.152-1.013-.101-1.52.152-.507.253-.862.608-1.217 1.115-.405.608-.507 1.267-.405 1.876.101.608.507 1.115 1.115 1.52.659.406 1.368.609 2.078.558.76-.051 1.673-.406 2.788-1.064l.862.506c-1.065 1.166-1.876 1.977-2.585 2.484zM89.924 292.639l-.101-.304v-.253c.507-.406.963-.659 1.368-.659.355-.051.71.101 1.065.355.355.253.557.557.659.963.101.355.101.861-.051 1.52.558-.253 1.166-.304 1.825-.202.608.101 1.267.405 1.926.912.608.456.963.913 1.065 1.369.1.456 0 .912-.305 1.318-.152.202-.354.354-.557.507a2.176 2.176 0 01-.862.304c-.355.05-.811.05-1.42-.051-.1 0-.405-.101-.912-.203l-2.838-.76a3.25 3.25 0 00-.507.659c-.608.811-.913 1.419-.913 1.825 0 .253.102.507.406.709.304.203.608.355.912.457.305.05.609.05.862-.051.203-.051.406-.254.76-.558.254-.202.406-.355.457-.355.152-.05.405-.05.71.051.303.102.506.152.608.152.405.102.76.203.912.355.05.152 0 .254-.101.406-.254.354-.507.557-.862.709-.456.203-1.014.254-1.673.254s-1.216-.051-1.673-.203c-.608-.203-1.318-.608-2.027-1.115-.456-.355-.811-.71-1.014-1.166a1.854 1.854 0 01-.152-1.267c.101-.457.507-1.116 1.166-1.977l1.115-1.42.76-1.064.203-.254c.203-.253.254-.456.254-.557 0-.101-.051-.254-.153-.304-.05-.051-.152-.051-.202-.051l-.558.203-.152-.254zm1.369 4.157c.405.152.912.253 1.52.304.609.051 1.115 0 1.47-.152.254-.101.507-.304.71-.558.203-.253.253-.506.253-.811-.05-.253-.152-.507-.354-.659-.304-.253-.66-.354-1.065-.354-.507 0-.81.101-1.014.202-.152.102-.507.507-1.014 1.217-.152.253-.304.558-.506.811zM79.532 289.597c-.05.355-.05.609-.05.862-1.622-.203-2.788-.253-3.549-.101-.456.101-.861.304-1.165.608-.305.355-.457.76-.457 1.217 0 .456.152.861.507 1.165.66.609 1.622.761 2.89.457l.253.76c-.76.304-1.42.507-1.926.558-.507.05-1.065-.051-1.724-.254-.507-.152-.963-.507-1.52-.963-.71-.659-1.065-1.318-1.115-2.028-.051-.709.152-1.317.659-1.824.405-.406.912-.71 1.52-.811.608-.152 1.47-.102 2.535.05l-.152-.152c-.71-.659-1.014-1.47-.963-2.433a3.784 3.784 0 011.013-2.433c.507-.558 1.166-1.014 1.977-1.369.811-.355 1.724-.405 2.788-.202 1.065.202 2.079.811 3.042 1.723.963.912 1.52 1.723 1.723 2.535.101.506.05.912-.203 1.216-.203.203-.405.304-.71.304-.303 0-.557-.101-.81-.304-.203-.203-.355-.405-.406-.659-.05-.253-.101-.71 0-1.369.05-.354 0-.608-.101-.76-.152-.355-.304-.557-.406-.659a2.51 2.51 0 00-1.166-.557c-.507-.102-1.014 0-1.622.253-.608.253-1.166.71-1.723 1.318-.609.608-.913 1.267-.913 1.926s.152 1.166.507 1.521c.203.101.66.304 1.267.405zM75.224 276.114l-.507.406c-.507-.507-.912-.71-1.216-.659-.254.101-1.116.659-2.484 1.723l-1.876 1.42-.203.152c-.608.507-.912.811-.861.963.05.152.152.405.405.862.102.152.152.253.152.304-.05.101-.152.152-.253.253-.05.051-.152.102-.254.203-.152-.152-.253-.304-.405-.456l-.304-.406c-.152-.152-.254-.355-.406-.507l-.71-.861-.405-.558c0-.152.152-.608.507-1.369l1.318-2.838.963-1.926c-.254.152-.862.304-1.876.557-1.064.254-2.18.608-3.294.963l-.254.051c-.203.051-.405.101-.659.152-.152.051-.304 0-.405-.152l-.153-.152-.354-.456-.507-.659a12.829 12.829 0 01-.71-.761c-.203-.202-.304-.304-.304-.355-.05-.05-.101-.101-.101-.152l.152-.101.253-.203.152-.101c.71.659 1.217.862 1.47.659l.102-.102.304-.253c.203-.152.557-.507 1.166-1.064l1.115-1.014c.81-.71 1.42-1.318 1.875-1.774.051-.051.102-.102.152-.102.102-.101.153-.152.153-.203 0-.05-.102-.304-.305-.709l-.253-.608c.304-.254.456-.406.507-.406.101.101.253.355.557.76.406.609.913 1.268 1.572 2.028.203.203.456.507.81.862l.254.253c-.304.254-.456.355-.507.406-.152-.051-.405-.254-.659-.457-.202-.152-.355-.253-.456-.202-.101 0-.253.101-.456.253l-.912.811-.862.761-2.281 2.179 4.156-1.166c.305-.101.71-.202 1.116-.355l.76-.253c.405-.101.659-.203.81-.253.305-.102.508-.152.558-.203l.406.405-1.064 2.332c-.254.558-.406.963-.558 1.267l-1.014 2.129-.659 1.47 2.535-2.078.202-.152.355-.253.913-.761c.355-.304.507-.557.507-.76 0-.203-.102-.507-.254-.862l-.152-.304.507-.456c.152.152.253.355.406.557.304.406.608.862 1.013 1.369-.101 0 .203.355.71.912zM55.759 264.658l-.507.558c-.507-.811-.862-1.419-1.115-1.774l-.355-.456-.507-.71c-.557-.811-.963-1.369-1.267-1.622l.71-.304.506.608c.203.304.355.406.457.355.101-.051.608-.355 1.52-.963l.609-.406.76-.507c1.926-1.318 2.94-2.078 2.99-2.281-.151-.405-.303-.709-.405-.963l-.152-.304.507-.355.406.659c.405.659.71 1.166.912 1.47l1.774 2.383-.557.354c-.102-.05-.153-.152-.254-.253-.304-.304-.557-.558-.76-.71-.406.203-1.217.659-2.332 1.47l-.608.457-.963.709c-.102.051-.254.152-.507.304 3.295.457 5.322.761 6.133.963.254-.202.456-.405.608-.608-.152-.405-.304-.709-.405-.963l-.152-.304.507-.406.405.659c.406.659.71 1.166.913 1.47l1.774 2.383-.558.355c-.101-.051-.152-.152-.253-.254-.304-.304-.558-.557-.76-.709-.406.202-.862.405-1.268.709l-1.42 1.014-1.317.912-.456.355-.558.254c-.507.355-.81.608-.861.709-.051.102 0 .305.202.558.102.101.203.355.406.659l-.507.558c-.507-.812-.862-1.42-1.115-1.775l-.355-.456-.507-.71c-.558-.811-.963-1.368-1.267-1.622l.71-.304.506.609c.203.304.355.405.456.405.102-.051.609-.355 1.521-.963l.558-.355.659-.405 1.723-1.217-2.94-.405a35.363 35.363 0 01-2.129-.305c-.557-.101-.912-.152-1.166-.152-.152.102-.304.152-.355.203-.253.203-.304.456-.05.811.152.101.304.355.456.608zM53.072 254.064l-.152-.355-.76-1.318-.203-.355-.355-.659c-.152-.253-.354-.608-.608-1.014l-1.065.609c-.912.507-1.419.811-1.57.912-.153.101-.102.304.1.659.051.152.203.355.305.71l-.609.507a27.913 27.913 0 00-.963-1.876l-.304-.507-.405-.76c-.507-.862-.862-1.42-1.116-1.774l.76-.254c.254.355.406.608.457.659.152.304.304.406.405.406.102 0 .457-.203 1.065-.507l1.166-.659 1.723-.913c1.369-.76 2.079-1.267 2.23-1.47-.151-.456-.253-.76-.303-1.013-.051-.102-.102-.203-.102-.305l.558-.354.608 1.165c.203.355.355.71.558 1.014l.81 1.369.71 1.166-.608.304c-.05-.051-.152-.152-.203-.254-.253-.354-.456-.608-.71-.811-.709.254-1.47.609-2.331 1.116l-.507.304c.253.405.507.76.71 1.166.304.557.557.963.659 1.267l.456.811c.101.152.203.355.304.507l.456-.304 1.369-.761c.355-.202.608-.405.861-.659-.152-.456-.253-.76-.304-1.013-.05-.102-.101-.203-.101-.305l.558-.354.608 1.165c.203.355.355.71.557 1.014l.811 1.369.71 1.166-.608.304c-.05-.051-.152-.152-.203-.254-.253-.304-.456-.608-.71-.811-.456.152-1.267.558-2.382 1.166l-2.636 1.572c-.76.456-1.166.709-1.216.811-.051.101 0 .253.152.557.101.152.202.406.304.71l-.608.507a27.865 27.865 0 00-.964-1.876l-.304-.507-.405-.76c-.507-.862-.862-1.419-1.115-1.723l.71-.254c.253.355.405.608.456.659.151.304.304.456.405.406.101-.051.456-.203 1.065-.507.81-.304 1.419-.609 1.824-.811zM45.215 248.285a2.07 2.07 0 01-.304-.557c-.05-.102-.05-.152-.101-.254-.254-.608-.456-1.115-.608-1.47l-.254-.507-.76-1.368c0-.051.05-.152.05-.203.305-.102.507-.203.558-.203.05.101.102.152.152.203.102.152.152.253.203.304.05.051.101.152.152.203.05.101.152.101.203.101.152-.101.253-.203.355-.304l.76-.912c.76-.811 1.42-1.572 2.028-2.332l.861-1.065c-.101 0-.861.051-2.331.152-1.724.102-2.687.203-2.89.254a.39.39 0 00-.253.101c-.05.051-.152.102-.304.203-.051.203-.051.355-.051.456 0 .102.101.355.203.71l.05.355-.101.101c-.05.051-.101.051-.152.101-.05 0-.152.051-.253.102-.102-.203-.203-.355-.203-.406l-.304-.811-.254-.557a8.293 8.293 0 00-.659-1.115c-.203-.305-.355-.558-.405-.761.152-.101.253-.152.355-.203.05 0 .1-.05.202-.05.102.101.203.203.304.355.153.202.305.405.457.557.101.051.202.102.304.102.304 0 .963-.051 1.977-.102l2.23-.203 4.714-.202 3.143-.102c.608 0 1.166.102 1.723.254.203.05.355.152.507.304.254.203.406.507.609.862 0 .05.101.202.202.557.051.304.051.608-.101.913a1.206 1.206 0 01-.406.456c-.354.152-.76.152-1.216 0-.304-.203-.507-.355-.558-.507-.152-.304-.152-.71 0-1.267.051-.254.051-.457 0-.558-.05-.101-.152-.152-.304-.203-1.368-.05-2.332-.05-2.89 0l-3.193 3.599a44.827 44.827 0 00-2.686 3.143c-.254.355-.355.558-.406.659v.406c0 .101.051.202 0 .354-.101.152-.253.254-.355.355zM42.63 237.488h-.912c-.456 0-1.014.051-1.622.102h-.355l-.203-.457c.05-.05.05-.101.102-.152.202-.304.354-.456.354-.507 0-.05-.152-.405-.355-1.064l-.861-2.129-.304-.811-.913-2.383-.101-.202c-.05-.102-.102-.203-.203-.254-.05-.05-.203-.05-.405-.05h-.203c-.05-.153-.152-.305-.254-.558l1.572-.608.659-.254c.405-.152.659-.253.76-.253.152.203.253.355.355.507a3.425 3.425 0 01-.76.76c-.305.304-.507.507-.507.608-.051.102.05.406.253.913l.203.557c.05.203.152.406.203.659l.861-.355 1.115-.405 1.825-.659c1.724-.659 2.636-1.065 2.788-1.217a8.973 8.973 0 00-.152-1.013c-.05-.102-.05-.203-.05-.355l.608-.254.405 1.217c.102.405.254.76.406 1.115l.608 1.47.507 1.267-.608.203c-.05-.101-.102-.152-.203-.304a8.663 8.663 0 00-.558-.862c-.557.102-1.318.304-2.23.659l-2.18.862c-1.115.405-1.824.71-2.18.912.102.304.203.558.254.71.254.608.406.963.558 1.115.152.152.507.304 1.115.456l.304.102c.203.05.355.152.355.202.101.254.05.457-.05.71zM34.317 217.871l-.659.355a58.2 58.2 0 00-.456-2.027l-.152-.558-.203-.862a14.365 14.365 0 00-.659-1.977l.76-.05.305.76c.101.304.202.507.304.507.101 0 .456-.051 1.115-.254l1.267-.304 1.774-.456c1.673-.456 2.636-.811 2.788-.963 0-.456-.05-.811-.101-1.064 0-.102 0-.203-.05-.355l.608-.203.151.71c.153.76.305 1.318.406 1.672l.913 2.839-.609.152-.152-.304c-.152-.406-.304-.71-.456-.912-.406.05-1.267.253-2.636.608l-1.42.405-1.165.304c-.963.254-1.52.457-1.673.507-.152.051-.152.304-.101.659 0 .203.05.457.101.811zm4.765 5.475l-.355-1.166-.152-.406c-.507-1.774-.608-2.99-.355-3.7.254-.71.76-1.166 1.47-1.369.862-.253 1.622-.101 2.281.507.66.609 1.166 1.521 1.521 2.788l.355 1.42 1.318 4.207-.66.152-.303-.659c-.102-.253-.203-.456-.304-.558-.203-.05-1.166.153-2.89.659l-1.774.558-1.217.406c-.608.152-.963.304-1.064.354-.101.051-.101.254 0 .609l.152.811-.558.253-.354-1.267-.152-.406c-.102-.304-.203-.709-.355-1.267l-.355-1.216-.203-.761c-.05-.152-.152-.355-.253-.659l.76-.05c.203.456.304.709.304.811.102.405.254.659.355.709.101.051.355 0 .76-.101l1.014-.304.558-.152c.101-.102.253-.152.456-.203zm4.004-1.217c0-.253-.05-.659-.202-1.115-.456-1.571-1.217-2.23-2.383-1.926-.507.152-.861.456-1.064.963-.203.507-.203 1.115.05 1.926.102.355.203.71.406 1.115.101 0 .152-.05.152-.05l.659-.203c.71-.152 1.42-.355 2.129-.558.101 0 .203-.05.253-.152zM27.17 179.245c0-.861.304-1.622.912-2.23.608-.608 1.369-.912 2.23-.912.862 0 1.572.304 2.23.912.61.608.913 1.369.913 2.23 0 .862-.304 1.622-.912 2.231-.608.608-1.369.912-2.23.912-.862 0-1.622-.304-2.23-.912-.66-.659-.913-1.369-.913-2.231z" fill="#fff"/><path d="M179.949 357.066c98.012 0 177.466-79.454 177.466-177.466 0-98.011-79.454-177.465-177.466-177.465C81.938 2.135 2.484 81.589 2.484 179.6c0 98.012 79.454 177.466 177.465 177.466z" stroke="#fff" stroke-width="2" stroke-miterlimit="10"/><path d="M161.521 151.537v55.56l48.744-27.654-48.744-27.906z" stroke="#fff" stroke-width="5" stroke-miterlimit="10" stroke-linecap="round" stroke-linejoin="round"/></g><defs><clipPath id="iclip0"><path fill="#fff" transform="translate(0 .057)" d="M0 0h360v358.834H0z"/></clipPath></defs></svg><svg fill="none" viewBox="0 0 31 27" id="ic_sort" xmlns="http://www.w3.org/2000/svg"><path d="M1 7.476L6.843 1.06 13 7.476M6.843 25.487V1.06M30 19.5l-5.843 6.415L18 19.5M24.157 1.488v24.427" stroke="#fff" stroke-width="2" stroke-miterlimit="10" stroke-linecap="round" stroke-linejoin="round"/></svg><svg fill="none" viewBox="0 0 53 28" id="ic_swiper-arrow-left" xmlns="http://www.w3.org/2000/svg"><path d="M14.894 1.623L1.759 13.586l13.135 12.606M51.772 13.586H1.759" stroke="#A3D39C" stroke-width="2" stroke-miterlimit="10" stroke-linecap="round" stroke-linejoin="round"/></svg><svg fill="none" viewBox="0 0 53 28" id="ic_swiper-arrow-right" xmlns="http://www.w3.org/2000/svg"><path d="M38.1 1.623l13.134 11.963L38.1 26.192M1.221 13.586h50.013" stroke="#A3D39C" stroke-width="2" stroke-miterlimit="10" stroke-linecap="round" stroke-linejoin="round"/></svg><svg viewBox="0 0 16 14" id="ic_tg" xmlns="http://www.w3.org/2000/svg"><path d="M6.279 9.096l-.265 3.723c.379 0 .543-.163.74-.358l1.775-1.697 3.679 2.695c.674.376 1.15.178 1.332-.621l2.415-11.316c.214-.997-.36-1.388-1.018-1.143L.743 5.813c-.969.376-.954.916-.165 1.161l3.629 1.129 8.43-5.274c.396-.263.757-.118.46.145L6.279 9.096z"/></svg><svg viewBox="0 0 16 13" id="ic_tw" xmlns="http://www.w3.org/2000/svg"><path d="M16 1.543a6.872 6.872 0 01-1.645 1.696 9.368 9.368 0 01-.376 3.066 9.453 9.453 0 01-1.177 2.517 9.91 9.91 0 01-1.868 2.143c-.724.615-1.597 1.11-2.62 1.482a9.666 9.666 0 01-3.278.548A9.106 9.106 0 010 11.523c.237.027.5.04.792.04a6.42 6.42 0 004.07-1.4 3.214 3.214 0 01-1.908-.65 3.235 3.235 0 01-1.157-1.625c.223.034.43.051.62.051.29 0 .578-.037.862-.112a3.259 3.259 0 01-1.888-1.126A3.201 3.201 0 01.65 4.609v-.04c.46.257.954.395 1.482.416a3.275 3.275 0 01-1.066-1.168A3.195 3.195 0 01.67 2.254c0-.596.149-1.147.447-1.655a9.373 9.373 0 002.985 2.426A9.22 9.22 0 007.878 4.03a3.643 3.643 0 01-.081-.75c0-.908.318-1.68.954-2.316A3.169 3.169 0 0111.076 0c.948 0 1.746.345 2.396 1.036a6.43 6.43 0 002.081-.792 3.184 3.184 0 01-1.441 1.807A6.534 6.534 0 0016 1.543z"/></svg><svg viewBox="0 0 19 11" id="ic_vk" xmlns="http://www.w3.org/2000/svg"><path d="M17.57 8.059c-.393-.414-.84-.785-1.27-1.143-.154-.128-.313-.26-.466-.39-.438-.377-.454-.519-.107-.947.24-.295.495-.59.742-.876.224-.26.455-.527.677-.796l.045-.055c.424-.515.862-1.047 1.095-1.689.06-.17.124-.418-.021-.627-.145-.208-.427-.272-.627-.301a1.946 1.946 0 00-.287-.017l-2.774-.002h-.023c-.42 0-.702.174-.864.53a13.74 13.74 0 01-.519 1.05c-.385.688-.875 1.48-1.584 2.141l-.03.028c-.084.08-.179.169-.248.169a.133.133 0 01-.035-.006c-.147-.05-.246-.362-.241-.507v-.006L11.03 1.8l-.003-.03c-.07-.457-.226-.742-.817-.843a.278.278 0 00-.048-.004H7.278c-.47 0-.729.168-.972.419-.066.067-.202.206-.135.376.07.172.292.208.365.22.361.06.564.254.622.593.1.588.113 1.216.039 1.975a1.49 1.49 0 01-.129.514c-.015.032-.07.138-.127.138-.018 0-.07-.006-.165-.063-.224-.135-.387-.327-.578-.564A12.863 12.863 0 014.53 1.817a.986.986 0 00-.92-.592c-.46-.006-.878-.01-1.276-.01-.435 0-.839.004-1.232.012-.337.005-.57.093-.693.263s-.115.394.024.664C1.544 4.32 2.55 5.896 3.697 7.261c.804.956 1.61 1.618 2.536 2.082.977.49 2.071.729 3.345.729.145 0 .294-.003.445-.01.74-.031 1.015-.266 1.05-.9.016-.323.057-.662.238-.951.114-.183.22-.183.256-.183.067 0 .151.028.241.079.161.092.3.216.413.324l.317.31c.228.224.464.456.71.675.538.481 1.132.693 1.813.647h2.56a.755.755 0 00.602-.34c.16-.248.157-.564-.008-.847a4.587 4.587 0 00-.645-.817z"/></svg><svg viewBox="0 0 16 17" id="ic_wa" xmlns="http://www.w3.org/2000/svg"><path d="M9.719 9.385c.27-.34.451-.51.541-.51.09 0 .428.153 1.01.458.591.306.904.49.938.552.014.035.021.087.021.157 0 .229-.059.493-.177.791-.111.271-.358.5-.74.688-.381.18-.736.27-1.062.27-.396 0-1.056-.215-1.98-.645a5.945 5.945 0 01-1.77-1.23C6 9.41 5.486 8.768 4.958 7.99c-.5-.743-.746-1.417-.74-2.021v-.084c.022-.632.279-1.18.772-1.645a.788.788 0 01.541-.23c.042 0 .104.007.188.021.083.007.15.01.198.01.132 0 .222.025.27.074.056.041.112.135.167.28.056.14.17.445.344.918.174.472.26.732.26.78 0 .147-.121.348-.364.605-.236.25-.354.41-.354.48 0 .048.017.1.052.155.236.507.59.983 1.062 1.427.39.368.913.72 1.573 1.053.083.048.16.072.23.072.103 0 .29-.166.562-.5zm-1.573 5.01a6.33 6.33 0 002.531-.52 6.581 6.581 0 002.094-1.396 6.613 6.613 0 001.396-2.083c.347-.813.52-1.66.52-2.542a6.33 6.33 0 00-.52-2.531 6.582 6.582 0 00-1.396-2.094 6.581 6.581 0 00-2.094-1.396 6.329 6.329 0 00-2.531-.52c-.882 0-1.73.173-2.542.52-.805.348-1.5.813-2.083 1.396a6.582 6.582 0 00-1.396 2.094 6.329 6.329 0 00-.52 2.531c0 1.41.416 2.688 1.25 3.833l-.824 2.428 2.521-.803a6.406 6.406 0 003.594 1.084zM5.094.626A7.669 7.669 0 018.146 0c1.062 0 2.076.208 3.041.625a7.918 7.918 0 012.51 1.677 7.918 7.918 0 011.678 2.51c.417.966.625 1.98.625 3.042 0 1.063-.208 2.08-.625 3.052a7.947 7.947 0 01-1.677 2.5 7.916 7.916 0 01-2.51 1.677 7.594 7.594 0 01-3.042.625 7.735 7.735 0 01-3.802-.979L0 16.125l1.417-4.219A7.666 7.666 0 01.292 7.854c0-1.062.208-2.076.625-3.042a7.917 7.917 0 011.677-2.51 7.948 7.948 0 012.5-1.677z"/></svg></svg>